<svg width="54" height="27" viewBox="0 0 54 27" fill="none" xmlns="http://www.w3.org/2000/svg">
<path fillRule="evenodd" clipRule="evenodd" d="M5.941 2.84564L5.919 2.82231L5.894 2.79899L5.868 2.77757L5.84 2.75621L5.811 2.73478L5.783 2.71342L5.755 2.69395L5.73 2.67455L5.577 2.55201L5.421 2.43148L5.265 2.31089L5.107 2.19422L5.028 2.13589L4.948 2.07755L4.868 2.01922L4.787 1.96474L4.707 1.90837L4.626 1.85395L4.545 1.79947L4.465 1.74891L4.383 1.69639L4.301 1.64583L4.22 1.59723L4.138 1.54667L4.056 1.50002L3.975 1.45528L3.892 1.41053L3.811 1.36781L3.728 1.32502L3.647 1.28419L3.564 1.24722L3.483 1.20835L3.4 1.17529L3.318 1.14218L3.236 1.10913L3.153 1.07999L3.114 1.06634L3.061 1.05079L2.997 1.03329L2.924 1.01388L2.843 0.994416L2.757 0.973052L2.668 0.951629L2.577 0.932224L2.487 0.914718L2.399 0.901069L2.315 0.889437L2.238 0.879705H2.202L2.169 0.877747H2.139L2.11 0.879705L2.084 0.881663L2.064 0.887479L2.045 0.893295L2.031 0.901069L2.004 0.903027L1.978 0.910801L1.953 0.918575L1.927 0.926349L1.902 0.93804L1.877 0.951629L1.852 0.965278L1.828 0.978868L1.805 0.994416L1.782 1.01192L1.76 1.03139L1.738 1.05079L1.716 1.0683L1.696 1.08972L1.675 1.11109L1.656 1.13251L1.631 1.16165L1.609 1.18693L1.587 1.21416L1.568 1.23945L1.55 1.26473L1.534 1.29001L1.519 1.31333L1.505 1.33665L1.476 1.38525L1.447 1.43777L1.417 1.49415L1.381 1.5564L1.372 1.57391L1.363 1.59141L1.352 1.61278L1.341 1.63806L1.317 1.69449L1.29 1.75668L1.263 1.82867L1.235 1.90451L1.205 1.98421L1.177 2.06978L1.148 2.15535L1.121 2.24087L1.094 2.3284L1.069 2.41201L1.048 2.49367L1.028 2.56951L1.02 2.60648L1.013 2.6415L1.005 2.67455L1 2.70369L0.986 2.75816L0.971001 2.8165L0.956001 2.87869L0.941002 2.9429L0.927002 3.01091L0.913002 3.08093L0.899002 3.15292L0.886002 3.2268L0.858002 3.37457L0.833 3.52233L0.809998 3.66042L0.788002 3.79068L0.776001 3.86267L0.764 3.93269L0.751999 4.00266L0.740997 4.07464L0.730003 4.14657L0.718002 4.21659L0.706001 4.28852L0.694 4.36044L0.682999 4.43046L0.671997 4.50245L0.658997 4.58019L0.647003 4.65995L0.635002 4.73964L0.624001 4.81549L0.614998 4.88937L0.608002 4.95744L0.601997 4.98859L0.595001 5.02354L0.587997 5.06443L0.581001 5.11303L0.566002 5.21605L0.551003 5.33082L0.537003 5.44749L0.524002 5.55835L0.512001 5.65555L0.501999 5.73525L0.489998 5.83833L0.476997 5.94141L0.466003 6.04057L0.454002 6.14169L0.442001 6.24282L0.43 6.3459L0.418999 6.44506L0.406998 6.55004L0.394997 6.65116L0.384003 6.75424L0.372002 6.85536L0.361 6.96034L0.349998 7.06733L0.338997 7.17231L0.329002 7.27925L0.318001 7.38619L0.307999 7.49318L0.297997 7.59816L0.288002 7.70706L0.278999 7.81399L0.269997 7.91903L0.262001 8.02597L0.253998 8.13101L0.246002 8.23403L0.235001 8.39159L0.223999 8.54712L0.212997 8.70266L0.202003 8.85826L0.190002 9.01772L0.179001 9.17326L0.167999 9.33271L0.156998 9.49021L0.146004 9.64777L0.136002 9.80723L0.126999 9.96276L0.117996 10.1242L0.109001 10.2817L0.100998 10.4411L0.0930023 10.6006L0.0879974 10.76L0.0770035 10.9818L0.0680008 11.2054L0.0579987 11.429L0.0479965 11.6545L0.0400009 11.8782L0.0309982 12.1018L0.0230026 12.3274L0.0159988 12.5529L0.0100021 12.7765L0.0059967 13.0021L0.0019989 13.2296L0 13.4533V13.566V13.6808L0.000999451 13.7916V13.9064L0.0019989 14.0191L0.00499725 14.13L0.00700378 14.2427L0.0100021 14.3575L0.0149994 14.5247L0.0199966 14.692L0.0250015 14.8612L0.0299988 15.0284L0.0350037 15.1937L0.0400009 15.3609L0.0449982 15.5281L0.0500031 15.6934L0.0540009 15.8587L0.0599976 16.024L0.0660019 16.1912L0.0719986 16.3585L0.0790024 16.5237L0.0859985 16.691L0.0930023 16.8582L0.101997 17.0274L0.110001 17.1849L0.117996 17.3424L0.126999 17.4999L0.135002 17.6574L0.144997 17.8169L0.153999 17.9744L0.164001 18.1338L0.174004 18.2894L0.184998 18.4469L0.195999 18.6044L0.207001 18.7619L0.219002 18.9175L0.231003 19.075L0.242996 19.2306L0.257004 19.3862L0.268997 19.5417L0.292999 19.8023L0.318001 20.0745L0.346001 20.3584L0.375999 20.6521L0.407997 20.9496L0.443001 21.251L0.477997 21.5583L0.515999 21.8635L0.536003 22.0172L0.555 22.1669L0.577003 22.3186L0.596001 22.4702L0.617996 22.618L0.639999 22.7658L0.661003 22.9116L0.682999 23.0555L0.706001 23.1955L0.728996 23.3356L0.751999 23.4717L0.775002 23.6039L0.799004 23.7362L0.822998 23.8606L0.847 23.9831L0.872002 24.1017L0.901001 24.2378L0.931999 24.372L0.946999 24.4362L0.963997 24.5023L0.980003 24.5645L0.996002 24.6268L1.013 24.689L1.029 24.7493L1.047 24.8096L1.064 24.8679L1.082 24.9243L1.1 24.9826L1.119 25.0371L1.137 25.0915L1.156 25.144L1.175 25.1965L1.195 25.2471L1.215 25.2977L1.236 25.3463L1.256 25.3929L1.277 25.4377L1.297 25.4843L1.319 25.5271L1.342 25.5699L1.364 25.6107L1.386 25.6496L1.41 25.6885L1.432 25.7255L1.456 25.7604L1.481 25.7954L1.509 25.8324L1.538 25.8693L1.568 25.9043L1.598 25.9374L1.629 25.9685L1.661 25.9977L1.694 26.0249L1.728 26.0502L1.763 26.0735L1.799 26.093L1.837 26.1124L1.875 26.126L1.895 26.1319L1.915 26.1377L1.935 26.1435L1.955 26.1474L1.976 26.1494L1.998 26.1552H2.019H2.042L2.085 26.1571H2.13L2.175 26.1552H2.219L2.265 26.1494L2.309 26.1474L2.354 26.1435L2.399 26.1377L2.444 26.1319L2.489 26.126L2.533 26.1202L2.578 26.1124L2.622 26.1027L2.666 26.093L2.711 26.0833L2.754 26.0735L2.816 26.0599L2.877 26.0463L2.938 26.0307L2.998 26.0132L3.057 25.9938L3.116 25.9744L3.174 25.9569L3.233 25.9354L3.29 25.9141L3.346 25.8927L3.403 25.8693L3.46 25.844L3.515 25.8207L3.571 25.7954L3.627 25.7682L3.682 25.741L3.792 25.6865L3.902 25.6282L4.012 25.566L4.121 25.5018L4.231 25.4377L4.342 25.3715L4.454 25.3035L4.568 25.2315L4.614 25.2024L4.684 25.1576L4.768 25.0993L4.86 25.0409L4.949 24.9788L5.029 24.9223L5.061 24.897L5.087 24.8757L5.107 24.8582L5.118 24.8465L5.144 24.8329L5.182 24.8076L5.234 24.7746L5.296 24.7318L5.365 24.6792L5.441 24.6248L5.521 24.5645L5.605 24.5023L5.688 24.4401L5.771 24.3778L5.851 24.3175L5.926 24.2612L5.993 24.2087L6.052 24.164L6.101 24.129L6.137 24.1017L6.175 24.0706L6.218 24.0414L6.261 24.0103L6.306 23.9773L6.35 23.9442L6.392 23.9092L6.431 23.8761L6.467 23.8411L6.494 23.8256L6.525 23.8023L6.559 23.7789L6.594 23.7478L6.629 23.7167L6.663 23.6895L6.693 23.6603L6.72 23.637L6.75 23.6098L6.781 23.5845L6.813 23.5592L6.843 23.532L6.874 23.5086L6.905 23.4794L6.936 23.4542L6.966 23.425L7.024 23.3705L7.085 23.3181L7.149 23.2636L7.213 23.2072L7.277 23.1509L7.339 23.0944L7.368 23.0633L7.397 23.0342L7.423 23.003L7.45 22.9739L7.468 22.9602L7.49 22.9389L7.517 22.9156L7.548 22.8844L7.622 22.8105L7.71 22.7211L7.807 22.62L7.911 22.5111L8.019 22.3944L8.13 22.2758L8.239 22.1552L8.344 22.0405L8.441 21.9316L8.53 21.8305L8.605 21.741L8.665 21.671L8.688 21.6399L8.707 21.6166L8.721 21.5971L8.728 21.5835L8.737 21.5758L8.751 21.5621L8.766 21.5466L8.787 21.5232L8.835 21.4669L8.892 21.3988L8.958 21.319L9.029 21.2296L9.105 21.1343L9.183 21.0351L9.26 20.936L9.336 20.8368L9.408 20.7415L9.475 20.654L9.534 20.5743L9.584 20.5082L9.623 20.4537L9.647 20.4168L9.658 20.4031L9.673 20.3876L9.693 20.3604L9.717 20.3273L9.778 20.2476L9.85 20.1484L9.933 20.0318L10.023 19.9014L10.119 19.7654L10.217 19.6234L10.315 19.4814L10.41 19.3414L10.499 19.2092L10.58 19.0886L10.651 18.9797L10.708 18.8922L10.731 18.8572L10.749 18.8261L10.763 18.8009L10.771 18.7853L10.781 18.7756L10.792 18.7619L10.805 18.7464L10.818 18.7269L10.849 18.6803L10.887 18.6239L10.927 18.5597L10.971 18.4897L11.017 18.4139L11.065 18.3361L11.113 18.2564L11.161 18.1766L11.208 18.1008L11.252 18.0269L11.293 17.9588L11.33 17.8985L11.364 17.848L11.391 17.8052L11.406 17.7838L11.415 17.7663L11.425 17.7488L11.441 17.7216L11.595 17.463L11.619 17.4163L11.643 17.3716L11.667 17.3288L11.691 17.286L11.714 17.2432L11.738 17.2005L11.762 17.1557L11.786 17.111L11.806 17.076L11.833 17.0254L11.868 16.9613L11.908 16.8854L11.95 16.8038L11.997 16.7143L12.045 16.621L12.094 16.5276L12.142 16.4343L12.188 16.3429L12.231 16.2573L12.269 16.1815L12.302 16.1154L12.328 16.061L12.346 16.022L12.354 16.0007L12.37 15.9754L12.384 15.9482L12.398 15.9209L12.411 15.8918L12.436 15.8334L12.462 15.7731L12.508 15.6603L12.553 15.5476L12.598 15.4328L12.64 15.322L12.661 15.2656L12.681 15.2072L12.701 15.1489L12.721 15.0925L12.74 15.0342L12.759 14.9759L12.777 14.9175L12.795 14.8572L12.812 14.795L12.829 14.7348L12.844 14.6725L12.86 14.6103L12.875 14.5461L12.889 14.482L12.903 14.4139L12.916 14.3478L12.929 14.2817L12.94 14.2097L12.951 14.1397L12.961 14.0677L12.971 13.9958L12.98 13.92L12.988 13.8441L12.996 13.7644L12.999 13.7294L13 13.6944V13.6555L12.999 13.6146L12.998 13.5738L12.996 13.531L12.993 13.4863L12.988 13.4436L12.984 13.3969L12.978 13.3502L12.972 13.3016L12.966 13.2549L12.951 13.1577L12.935 13.0624L12.918 12.9671L12.9 12.8738L12.881 12.7843L12.862 12.7007L12.843 12.621L12.825 12.551L12.809 12.4868L12.793 12.4323L12.768 12.3507L12.745 12.2729L12.722 12.2029L12.701 12.1368L12.679 12.0726L12.658 12.0143L12.637 11.954L12.616 11.8956L12.594 11.8412L12.572 11.7848L12.549 11.7265L12.525 11.6682L12.473 11.5456L12.413 11.4076L12.388 11.3493L12.36 11.287L12.331 11.2229L12.301 11.1587L12.239 11.0245L12.173 10.8923L12.108 10.7581L12.042 10.6317L11.979 10.5112L11.92 10.4023L11.9 10.3653L11.881 10.3245L11.861 10.2817L11.841 10.2369L11.82 10.1922L11.799 10.1495L11.776 10.1047L11.753 10.0619L10.527 8.03766L10.466 7.94817L10.403 7.85292L10.34 7.75376L10.276 7.65846L10.212 7.55929L10.148 7.46203L10.083 7.36678L10.019 7.27539L9.95 7.18009L9.883 7.08478L9.817 6.99339L9.752 6.902L9.688 6.81257L9.624 6.72314L9.561 6.63561L9.498 6.54808L9.434 6.46061L9.369 6.37308L9.304 6.28364L9.237 6.19611L9.17 6.10668L9.1 6.01725L9.029 5.9239L8.956 5.83251L8.887 5.74498L8.817 5.65947L8.747 5.5739L8.677 5.48832L8.607 5.40667L8.536 5.32109L8.465 5.23748L8.393 5.15386L8.324 5.07025L8.254 4.99049L8.182 4.90883L8.111 4.83103L8.039 4.75134L7.966 4.67354L7.893 4.59384L7.819 4.51604L7.744 4.43824L7.669 4.36044L7.595 4.28466L7.519 4.20882L7.443 4.13487L7.366 4.06099L7.29 3.98515L7.213 3.91323L7.16 3.86267L7.105 3.81015L7.048 3.75763L6.99 3.70321L6.931 3.65265L6.87 3.59817L6.809 3.54571L6.747 3.49124L6.686 3.43872L6.624 3.3843L6.563 3.3357L6.502 3.28514L6.442 3.23457L6.383 3.18787L6.325 3.14123L6.269 3.09844L6.231 3.0693L6.191 3.03429L6.149 2.99928L6.105 2.96426L6.062 2.92729L6.019 2.89424L5.999 2.88065L5.979 2.86896L5.959 2.85537L5.941 2.84564Z" fill="#7F7F7F" fill-opacity="0.0784314"/>
<path fillRule="evenodd" clipRule="evenodd" d="M25.941 2.84564L25.919 2.82231L25.894 2.79899L25.868 2.77757L25.84 2.75621L25.811 2.73478L25.783 2.71342L25.755 2.69395L25.73 2.67455L25.577 2.55201L25.421 2.43148L25.265 2.31089L25.107 2.19422L25.028 2.13589L24.948 2.07755L24.868 2.01922L24.787 1.96474L24.707 1.90837L24.626 1.85395L24.545 1.79947L24.464 1.74891L24.383 1.69639L24.301 1.64583L24.22 1.59723L24.138 1.54667L24.056 1.50002L23.975 1.45528L23.892 1.41053L23.811 1.36781L23.728 1.32502L23.647 1.28419L23.564 1.24722L23.483 1.20835L23.4 1.17529L23.318 1.14218L23.236 1.10913L23.153 1.07999L23.114 1.06634L23.061 1.05079L22.997 1.03329L22.924 1.01388L22.843 0.994416L22.757 0.973052L22.668 0.951629L22.577 0.932224L22.487 0.914718L22.399 0.901069L22.315 0.889437L22.238 0.879705H22.202L22.169 0.877747H22.139L22.11 0.879705L22.084 0.881663L22.064 0.887479L22.045 0.893295L22.031 0.901069L22.004 0.903027L21.978 0.910801L21.953 0.918575L21.927 0.926349L21.902 0.93804L21.877 0.951629L21.852 0.965278L21.828 0.978868L21.805 0.994416L21.782 1.01192L21.76 1.03139L21.738 1.05079L21.716 1.0683L21.696 1.08972L21.675 1.11109L21.656 1.13251L21.631 1.16165L21.609 1.18693L21.587 1.21416L21.568 1.23945L21.55 1.26473L21.534 1.29001L21.519 1.31333L21.505 1.33665L21.476 1.38525L21.447 1.43777L21.417 1.49415L21.381 1.5564L21.372 1.57391L21.363 1.59141L21.352 1.61278L21.341 1.63806L21.317 1.69449L21.29 1.75668L21.263 1.82867L21.235 1.90451L21.205 1.98421L21.177 2.06978L21.148 2.15535L21.121 2.24087L21.094 2.3284L21.069 2.41201L21.048 2.49367L21.028 2.56951L21.02 2.60648L21.013 2.6415L21.005 2.67455L21 2.70369L20.986 2.75816L20.971 2.8165L20.956 2.87869L20.941 2.9429L20.927 3.01091L20.913 3.08093L20.899 3.15292L20.886 3.2268L20.858 3.37457L20.833 3.52233L20.81 3.66042L20.788 3.79068L20.776 3.86267L20.764 3.93269L20.752 4.00266L20.741 4.07464L20.73 4.14657L20.718 4.21659L20.706 4.28852L20.694 4.36044L20.683 4.43046L20.672 4.50245L20.659 4.58019L20.647 4.65995L20.635 4.73964L20.624 4.81549L20.615 4.88937L20.608 4.95744L20.602 4.98859L20.595 5.02354L20.588 5.06443L20.581 5.11303L20.566 5.21605L20.551 5.33082L20.537 5.44749L20.524 5.55835L20.512 5.65555L20.502 5.73525L20.49 5.83833L20.477 5.94141L20.466 6.04057L20.454 6.14169L20.442 6.24282L20.43 6.3459L20.419 6.44506L20.407 6.55004L20.395 6.65116L20.384 6.75424L20.372 6.85536L20.361 6.96034L20.35 7.06733L20.339 7.17231L20.329 7.27925L20.318 7.38619L20.308 7.49318L20.298 7.59816L20.288 7.70706L20.279 7.81399L20.27 7.91903L20.262 8.02597L20.254 8.13101L20.246 8.23403L20.235 8.39159L20.224 8.54712L20.213 8.70266L20.202 8.85826L20.19 9.01772L20.179 9.17326L20.168 9.33271L20.157 9.49021L20.146 9.64777L20.136 9.80723L20.127 9.96276L20.118 10.1242L20.109 10.2817L20.101 10.4411L20.093 10.6006L20.088 10.76L20.077 10.9818L20.068 11.2054L20.058 11.429L20.048 11.6545L20.04 11.8782L20.031 12.1018L20.023 12.3274L20.016 12.5529L20.01 12.7765L20.006 13.0021L20.002 13.2296L20 13.4533V13.566V13.6808L20.001 13.7916V13.9064L20.002 14.0191L20.005 14.13L20.007 14.2427L20.01 14.3575L20.015 14.5247L20.02 14.692L20.025 14.8612L20.03 15.0284L20.035 15.1937L20.04 15.3609L20.045 15.5281L20.05 15.6934L20.054 15.8587L20.06 16.024L20.066 16.1912L20.072 16.3585L20.079 16.5237L20.086 16.691L20.093 16.8582L20.102 17.0274L20.11 17.1849L20.118 17.3424L20.127 17.4999L20.135 17.6574L20.145 17.8169L20.154 17.9744L20.164 18.1338L20.174 18.2894L20.185 18.4469L20.196 18.6044L20.207 18.7619L20.219 18.9175L20.231 19.075L20.243 19.2306L20.257 19.3862L20.269 19.5417L20.293 19.8023L20.318 20.0745L20.346 20.3584L20.376 20.6521L20.408 20.9496L20.443 21.251L20.478 21.5583L20.516 21.8635L20.536 22.0172L20.555 22.1669L20.577 22.3186L20.596 22.4702L20.618 22.618L20.64 22.7658L20.661 22.9116L20.683 23.0555L20.706 23.1955L20.729 23.3356L20.752 23.4717L20.775 23.6039L20.799 23.7362L20.823 23.8606L20.847 23.9831L20.872 24.1017L20.901 24.2378L20.932 24.372L20.947 24.4362L20.964 24.5023L20.98 24.5645L20.996 24.6268L21.013 24.689L21.029 24.7493L21.047 24.8096L21.064 24.8679L21.082 24.9243L21.1 24.9826L21.119 25.0371L21.137 25.0915L21.156 25.144L21.175 25.1965L21.195 25.2471L21.215 25.2977L21.236 25.3463L21.256 25.3929L21.277 25.4377L21.297 25.4843L21.319 25.5271L21.342 25.5699L21.364 25.6107L21.386 25.6496L21.41 25.6885L21.432 25.7255L21.456 25.7604L21.481 25.7954L21.509 25.8324L21.538 25.8693L21.568 25.9043L21.598 25.9374L21.629 25.9685L21.661 25.9977L21.694 26.0249L21.728 26.0502L21.763 26.0735L21.799 26.093L21.837 26.1124L21.875 26.126L21.895 26.1319L21.915 26.1377L21.935 26.1435L21.955 26.1474L21.976 26.1494L21.998 26.1552H22.019H22.042L22.085 26.1571H22.13L22.175 26.1552H22.219L22.265 26.1494L22.309 26.1474L22.354 26.1435L22.399 26.1377L22.444 26.1319L22.489 26.126L22.533 26.1202L22.578 26.1124L22.622 26.1027L22.666 26.093L22.711 26.0833L22.754 26.0735L22.816 26.0599L22.877 26.0463L22.938 26.0307L22.998 26.0132L23.057 25.9938L23.116 25.9744L23.174 25.9569L23.233 25.9354L23.29 25.9141L23.346 25.8927L23.403 25.8693L23.46 25.844L23.515 25.8207L23.571 25.7954L23.627 25.7682L23.682 25.741L23.792 25.6865L23.902 25.6282L24.012 25.566L24.121 25.5018L24.231 25.4377L24.342 25.3715L24.454 25.3035L24.568 25.2315L24.614 25.2024L24.684 25.1576L24.768 25.0993L24.86 25.0409L24.949 24.9788L25.029 24.9223L25.061 24.897L25.087 24.8757L25.107 24.8582L25.118 24.8465L25.144 24.8329L25.182 24.8076L25.234 24.7746L25.296 24.7318L25.365 24.6792L25.441 24.6248L25.521 24.5645L25.605 24.5023L25.688 24.4401L25.771 24.3778L25.851 24.3175L25.926 24.2612L25.993 24.2087L26.052 24.164L26.101 24.129L26.137 24.1017L26.175 24.0706L26.218 24.0414L26.261 24.0103L26.306 23.9773L26.35 23.9442L26.392 23.9092L26.431 23.8761L26.467 23.8411L26.494 23.8256L26.525 23.8023L26.559 23.7789L26.594 23.7478L26.629 23.7167L26.663 23.6895L26.693 23.6603L26.72 23.637L26.75 23.6098L26.781 23.5845L26.813 23.5592L26.843 23.532L26.874 23.5086L26.905 23.4794L26.936 23.4542L26.966 23.425L27.024 23.3705L27.085 23.3181L27.149 23.2636L27.213 23.2072L27.277 23.1509L27.339 23.0944L27.368 23.0633L27.397 23.0342L27.423 23.003L27.45 22.9739L27.468 22.9602L27.49 22.9389L27.517 22.9156L27.548 22.8844L27.622 22.8105L27.71 22.7211L27.807 22.62L27.911 22.5111L28.019 22.3944L28.13 22.2758L28.239 22.1552L28.344 22.0405L28.441 21.9316L28.53 21.8305L28.605 21.741L28.665 21.671L28.688 21.6399L28.707 21.6166L28.721 21.5971L28.728 21.5835L28.737 21.5758L28.751 21.5621L28.766 21.5466L28.787 21.5232L28.835 21.4669L28.892 21.3988L28.958 21.319L29.029 21.2296L29.105 21.1343L29.183 21.0351L29.26 20.936L29.336 20.8368L29.408 20.7415L29.475 20.654L29.534 20.5743L29.584 20.5082L29.623 20.4537L29.647 20.4168L29.658 20.4031L29.673 20.3876L29.693 20.3604L29.717 20.3273L29.778 20.2476L29.85 20.1484L29.933 20.0318L30.023 19.9014L30.119 19.7654L30.217 19.6234L30.315 19.4814L30.41 19.3414L30.499 19.2092L30.58 19.0886L30.651 18.9797L30.708 18.8922L30.731 18.8572L30.749 18.8261L30.763 18.8009L30.771 18.7853L30.781 18.7756L30.792 18.7619L30.805 18.7464L30.818 18.7269L30.849 18.6803L30.887 18.6239L30.927 18.5597L30.971 18.4897L31.017 18.4139L31.065 18.3361L31.113 18.2564L31.161 18.1766L31.208 18.1008L31.252 18.0269L31.293 17.9588L31.33 17.8985L31.364 17.848L31.391 17.8052L31.406 17.7838L31.415 17.7663L31.425 17.7488L31.441 17.7216L31.595 17.463L31.619 17.4163L31.643 17.3716L31.667 17.3288L31.691 17.286L31.714 17.2432L31.738 17.2005L31.762 17.1557L31.786 17.111L31.806 17.076L31.833 17.0254L31.868 16.9613L31.908 16.8854L31.95 16.8038L31.997 16.7143L32.045 16.621L32.094 16.5276L32.142 16.4343L32.188 16.3429L32.231 16.2573L32.269 16.1815L32.302 16.1154L32.328 16.061L32.346 16.022L32.354 16.0007L32.37 15.9754L32.384 15.9482L32.398 15.9209L32.411 15.8918L32.436 15.8334L32.462 15.7731L32.508 15.6603L32.553 15.5476L32.598 15.4328L32.64 15.322L32.661 15.2656L32.681 15.2072L32.701 15.1489L32.721 15.0925L32.74 15.0342L32.759 14.9759L32.777 14.9175L32.795 14.8572L32.812 14.795L32.829 14.7348L32.844 14.6725L32.86 14.6103L32.875 14.5461L32.889 14.482L32.903 14.4139L32.916 14.3478L32.929 14.2817L32.94 14.2097L32.951 14.1397L32.961 14.0677L32.971 13.9958L32.98 13.92L32.988 13.8441L32.996 13.7644L32.999 13.7294L33 13.6944V13.6555L32.999 13.6146L32.998 13.5738L32.996 13.531L32.993 13.4863L32.988 13.4436L32.984 13.3969L32.978 13.3502L32.972 13.3016L32.966 13.2549L32.951 13.1577L32.935 13.0624L32.918 12.9671L32.9 12.8738L32.881 12.7843L32.862 12.7007L32.843 12.621L32.825 12.551L32.809 12.4868L32.793 12.4323L32.768 12.3507L32.745 12.2729L32.722 12.2029L32.701 12.1368L32.679 12.0726L32.658 12.0143L32.637 11.954L32.616 11.8956L32.594 11.8412L32.572 11.7848L32.549 11.7265L32.525 11.6682L32.473 11.5456L32.413 11.4076L32.388 11.3493L32.36 11.287L32.331 11.2229L32.301 11.1587L32.239 11.0245L32.173 10.8923L32.108 10.7581L32.042 10.6317L31.979 10.5112L31.92 10.4023L31.9 10.3653L31.881 10.3245L31.861 10.2817L31.841 10.2369L31.82 10.1922L31.799 10.1495L31.776 10.1047L31.753 10.0619L30.527 8.03766L30.466 7.94817L30.403 7.85292L30.34 7.75376L30.276 7.65846L30.212 7.55929L30.148 7.46203L30.083 7.36678L30.019 7.27539L29.95 7.18009L29.883 7.08478L29.817 6.99339L29.752 6.902L29.688 6.81257L29.624 6.72314L29.561 6.63561L29.498 6.54808L29.434 6.46061L29.369 6.37308L29.304 6.28364L29.237 6.19611L29.17 6.10668L29.1 6.01725L29.029 5.9239L28.956 5.83251L28.887 5.74498L28.817 5.65947L28.747 5.5739L28.677 5.48832L28.607 5.40667L28.536 5.32109L28.465 5.23748L28.393 5.15386L28.324 5.07025L28.254 4.99049L28.182 4.90883L28.111 4.83103L28.039 4.75134L27.966 4.67354L27.893 4.59384L27.819 4.51604L27.744 4.43824L27.669 4.36044L27.595 4.28466L27.519 4.20882L27.443 4.13487L27.366 4.06099L27.29 3.98515L27.213 3.91323L27.16 3.86267L27.105 3.81015L27.048 3.75763L26.99 3.70321L26.931 3.65265L26.87 3.59817L26.809 3.54571L26.747 3.49124L26.686 3.43872L26.624 3.3843L26.563 3.3357L26.502 3.28514L26.442 3.23457L26.383 3.18787L26.325 3.14123L26.269 3.09844L26.231 3.0693L26.191 3.03429L26.149 2.99928L26.105 2.96426L26.062 2.92729L26.019 2.89424L25.999 2.88065L25.979 2.86896L25.959 2.85537L25.941 2.84564Z" fill="#7F7F7F" fill-opacity="0.2"/>
<path fillRule="evenodd" clipRule="evenodd" d="M46.398 2.84564L46.374 2.82231L46.348 2.79899L46.319 2.77757L46.289 2.75621L46.258 2.73478L46.227 2.71342L46.198 2.69395L46.171 2.67455L46.006 2.55201L45.838 2.43148L45.67 2.31089L45.499 2.19422L45.415 2.13589L45.328 2.07755L45.242 2.01922L45.155 1.96474L45.069 1.90837L44.982 1.85395L44.895 1.79947L44.808 1.74891L44.72 1.69639L44.632 1.64583L44.544 1.59723L44.456 1.54667L44.368 1.50002L44.28 1.45528L44.192 1.41053L44.104 1.36781L44.015 1.32502L43.927 1.28419L43.838 1.24722L43.75 1.20835L43.662 1.17529L43.573 1.14218L43.485 1.10913L43.396 1.07999L43.354 1.06634L43.297 1.05079L43.228 1.03329L43.149 1.01388L43.061 0.994416L42.969 0.973052L42.873 0.951629L42.775 0.932224L42.678 0.914718L42.584 0.901069L42.493 0.889437L42.41 0.879705H42.371L42.336 0.877747H42.303L42.272 0.879705L42.245 0.881663L42.223 0.887479L42.202 0.893295L42.187 0.901069L42.158 0.903027L42.13 0.910801L42.103 0.918575L42.075 0.926349L42.048 0.93804L42.021 0.951629L41.994 0.965278L41.969 0.978868L41.944 0.994416L41.919 1.01192L41.895 1.03139L41.872 1.05079L41.848 1.0683L41.827 1.08972L41.804 1.11109L41.784 1.13251L41.757 1.16165L41.732 1.18693L41.709 1.21416L41.689 1.23945L41.67 1.26473L41.652 1.29001L41.636 1.31333L41.621 1.33665L41.59 1.38525L41.559 1.43777L41.526 1.49415L41.488 1.5564L41.478 1.57391L41.468 1.59141L41.456 1.61278L41.444 1.63806L41.418 1.69449L41.389 1.75668L41.36 1.82867L41.33 1.90451L41.298 1.98421L41.267 2.06978L41.236 2.15535L41.207 2.24087L41.179 2.3284L41.152 2.41201L41.129 2.49367L41.107 2.56951L41.099 2.60648L41.091 2.6415L41.083 2.67455L41.076 2.70369L41.061 2.75816L41.046 2.8165L41.03 2.87869L41.014 2.9429L40.999 3.01091L40.983 3.08093L40.968 3.15292L40.954 3.2268L40.924 3.37457L40.897 3.52233L40.872 3.66042L40.848 3.79068L40.836 3.86267L40.823 3.93269L40.81 4.00266L40.798 4.07464L40.786 4.14657L40.773 4.21659L40.76 4.28852L40.748 4.36044L40.736 4.43046L40.723 4.50245L40.71 4.58019L40.697 4.65995L40.684 4.73964L40.672 4.81549L40.662 4.88937L40.655 4.95744L40.648 4.98859L40.641 5.02354L40.634 5.06443L40.626 5.11303L40.61 5.21605L40.593 5.33082L40.578 5.44749L40.564 5.55835L40.551 5.65555L40.541 5.73525L40.528 5.83833L40.514 5.94141L40.501 6.04057L40.489 6.14169L40.476 6.24282L40.463 6.3459L40.451 6.44506L40.438 6.55004L40.425 6.65116L40.413 6.75424L40.401 6.85536L40.389 6.96034L40.377 7.06733L40.365 7.17231L40.354 7.27925L40.343 7.38619L40.332 7.49318L40.321 7.59816L40.311 7.70706L40.301 7.81399L40.291 7.91903L40.282 8.02597L40.274 8.13101L40.265 8.23403L40.253 8.39159L40.241 8.54712L40.229 8.70266L40.218 8.85826L40.205 9.01772L40.193 9.17326L40.181 9.33271L40.17 9.49021L40.158 9.64777L40.147 9.80723L40.137 9.96276L40.127 10.1242L40.117 10.2817L40.109 10.4411L40.101 10.6006L40.094 10.76L40.083 10.9818L40.073 11.2054L40.063 11.429L40.051 11.6545L40.043 11.8782L40.033 12.1018L40.025 12.3274L40.017 12.5529L40.011 12.7765L40.006 13.0021L40.002 13.2296L40 13.4533V13.566V13.6808L40.001 13.7916L40.002 13.9064V14.0191L40.006 14.13L40.008 14.2427L40.011 14.3575L40.017 14.5247L40.021 14.692L40.027 14.8612L40.032 15.0284L40.037 15.1937L40.043 15.3609L40.048 15.5281L40.054 15.6934L40.059 15.8587L40.065 16.024L40.071 16.1912L40.078 16.3585L40.086 16.5237L40.093 16.691L40.101 16.8582L40.109 17.0274L40.118 17.1849L40.127 17.3424L40.136 17.4999L40.146 17.6574L40.156 17.8169L40.166 17.9744L40.177 18.1338L40.188 18.2894L40.2 18.4469L40.211 18.6044L40.223 18.7619L40.236 18.9175L40.249 19.075L40.262 19.2306L40.276 19.3862L40.29 19.5417L40.315 19.8023L40.343 20.0745L40.372 20.3584L40.405 20.6521L40.44 20.9496L40.477 21.251L40.515 21.5583L40.555 21.8635L40.577 22.0172L40.598 22.1669L40.621 22.3186L40.642 22.4702L40.665 22.618L40.689 22.7658L40.712 22.9116L40.736 23.0555L40.76 23.1955L40.785 23.3356L40.81 23.4717L40.835 23.6039L40.86 23.7362L40.886 23.8606L40.912 23.9831L40.939 24.1017L40.97 24.2378L41.004 24.372L41.02 24.4362L41.038 24.5023L41.055 24.5645L41.072 24.6268L41.091 24.689L41.108 24.7493L41.127 24.8096L41.146 24.8679L41.165 24.9243L41.185 24.9826L41.205 25.0371L41.225 25.0915L41.245 25.144L41.266 25.1965L41.287 25.2471L41.309 25.2977L41.331 25.3463L41.352 25.3929L41.375 25.4377L41.397 25.4843L41.421 25.5271L41.445 25.5699L41.469 25.6107L41.493 25.6496L41.518 25.6885L41.542 25.7255L41.568 25.7604L41.594 25.7954L41.625 25.8324L41.656 25.8693L41.689 25.9043L41.721 25.9374L41.754 25.9685L41.789 25.9977L41.824 26.0249L41.861 26.0502L41.899 26.0735L41.937 26.093L41.978 26.1124L42.019 26.126L42.04 26.1319L42.062 26.1377L42.084 26.1435L42.105 26.1474L42.128 26.1494L42.151 26.1552H42.174H42.199L42.246 26.1571H42.294L42.342 26.1552H42.39L42.439 26.1494L42.487 26.1474L42.535 26.1435L42.584 26.1377L42.632 26.1319L42.68 26.126L42.728 26.1202L42.776 26.1124L42.824 26.1027L42.871 26.093L42.92 26.0833L42.966 26.0735L43.033 26.0599L43.099 26.0463L43.164 26.0307L43.229 26.0132L43.293 25.9938L43.355 25.9744L43.419 25.9569L43.481 25.9354L43.543 25.9141L43.603 25.8927L43.665 25.8693L43.726 25.844L43.785 25.8207L43.846 25.7954L43.906 25.7682L43.965 25.741L44.084 25.6865L44.202 25.6282L44.321 25.566L44.438 25.5018L44.557 25.4377L44.676 25.3715L44.797 25.3035L44.92 25.2315L44.969 25.2024L45.044 25.1576L45.135 25.0993L45.234 25.0409L45.33 24.9788L45.415 24.9223L45.45 24.897L45.479 24.8757L45.499 24.8582L45.512 24.8465L45.54 24.8329L45.581 24.8076L45.636 24.7746L45.703 24.7318L45.777 24.6792L45.859 24.6248L45.946 24.5645L46.036 24.5023L46.126 24.4401L46.215 24.3778L46.301 24.3175L46.382 24.2612L46.454 24.2087L46.517 24.164L46.57 24.129L46.609 24.1017L46.65 24.0706L46.696 24.0414L46.743 24.0103L46.791 23.9773L46.838 23.9442L46.883 23.9092L46.926 23.8761L46.964 23.8411L46.993 23.8256L47.027 23.8023L47.064 23.7789L47.101 23.7478L47.139 23.7167L47.175 23.6895L47.208 23.6603L47.237 23.637L47.27 23.6098L47.303 23.5845L47.337 23.5592L47.37 23.532L47.403 23.5086L47.436 23.4794L47.469 23.4542L47.502 23.425L47.564 23.3705L47.63 23.3181L47.699 23.2636L47.768 23.2072L47.837 23.1509L47.903 23.0944L47.935 23.0633L47.966 23.0342L47.994 23.003L48.023 22.9739L48.042 22.9602L48.067 22.9389L48.095 22.9156L48.129 22.8844L48.208 22.8105L48.303 22.7211L48.407 22.62L48.52 22.5111L48.636 22.3944L48.755 22.2758L48.873 22.1552L48.985 22.0405L49.091 21.9316L49.186 21.8305L49.267 21.741L49.331 21.671L49.357 21.6399L49.377 21.6166L49.392 21.5971L49.4 21.5835L49.409 21.5758L49.424 21.5621L49.441 21.5466L49.463 21.5232L49.514 21.4669L49.576 21.3988L49.647 21.319L49.724 21.2296L49.805 21.1343L49.889 21.0351L49.972 20.936L50.055 20.8368L50.131 20.7415L50.204 20.654L50.268 20.5743L50.322 20.5082L50.363 20.4537L50.389 20.4168L50.401 20.4031L50.417 20.3876L50.439 20.3604L50.465 20.3273L50.53 20.2476L50.608 20.1484L50.697 20.0318L50.794 19.9014L50.897 19.7654L51.003 19.6234L51.108 19.4814L51.21 19.3414L51.306 19.2092L51.394 19.0886L51.47 18.9797L51.532 18.8922L51.556 18.8572L51.576 18.8261L51.591 18.8009L51.6 18.7853L51.61 18.7756L51.622 18.7619L51.636 18.7464L51.65 18.7269L51.684 18.6803L51.724 18.6239L51.768 18.5597L51.815 18.4897L51.865 18.4139L51.916 18.3361L51.968 18.2564L52.02 18.1766L52.07 18.1008L52.117 18.0269L52.162 17.9588L52.202 17.8985L52.238 17.848L52.267 17.8052L52.284 17.7838L52.293 17.7663L52.304 17.7488L52.321 17.7216L52.487 17.463L52.513 17.4163L52.539 17.3716L52.565 17.3288L52.59 17.286L52.615 17.2432L52.641 17.2005L52.667 17.1557L52.693 17.111L52.714 17.076L52.744 17.0254L52.781 16.9613L52.824 16.8854L52.87 16.8038L52.92 16.7143L52.972 16.621L53.024 16.5276L53.076 16.4343L53.126 16.3429L53.171 16.2573L53.213 16.1815L53.248 16.1154L53.276 16.061L53.296 16.022L53.305 16.0007L53.321 15.9754L53.336 15.9482L53.351 15.9209L53.366 15.8918L53.392 15.8334L53.42 15.7731L53.47 15.6603L53.518 15.5476L53.567 15.4328L53.612 15.322L53.635 15.2656L53.656 15.2072L53.678 15.1489L53.699 15.0925L53.72 15.0342L53.74 14.9759L53.76 14.9175L53.779 14.8572L53.797 14.795L53.815 14.7348L53.832 14.6725L53.85 14.6103L53.865 14.5461L53.88 14.482L53.895 14.4139L53.91 14.3478L53.923 14.2817L53.936 14.2097L53.948 14.1397L53.958 14.0677L53.969 13.9958L53.979 13.92L53.987 13.8441L53.995 13.7644L53.998 13.7294L54 13.6944V13.6555L53.999 13.6146L53.998 13.5738L53.995 13.531L53.992 13.4863L53.987 13.4436L53.983 13.3969L53.976 13.3502L53.97 13.3016L53.964 13.2549L53.948 13.1577L53.93 13.0624L53.911 12.9671L53.892 12.8738L53.872 12.7843L53.851 12.7007L53.831 12.621L53.811 12.551L53.794 12.4868L53.777 12.4323L53.75 12.3507L53.725 12.2729L53.701 12.2029L53.678 12.1368L53.655 12.0726L53.632 12.0143L53.609 11.954L53.587 11.8956L53.563 11.8412L53.539 11.7848L53.514 11.7265L53.488 11.6682L53.432 11.5456L53.368 11.4076L53.341 11.3493L53.311 11.287L53.28 11.2229L53.248 11.1587L53.181 11.0245L53.11 10.8923L53.039 10.7581L52.969 10.6317L52.901 10.5112L52.837 10.4023L52.815 10.3653L52.794 10.3245L52.774 10.2817L52.752 10.2369L52.73 10.1922L52.707 10.1495L52.682 10.1047L52.657 10.0619L51.337 8.03766L51.271 7.94817L51.203 7.85292L51.135 7.75376L51.067 7.65846L50.998 7.55929L50.928 7.46203L50.859 7.36678L50.79 7.27539L50.715 7.18009L50.643 7.08478L50.573 6.99339L50.502 6.902L50.433 6.81257L50.364 6.72314L50.296 6.63561L50.228 6.54808L50.159 6.46061L50.09 6.37308L50.02 6.28364L49.948 6.19611L49.876 6.10668L49.8 6.01725L49.724 5.9239L49.645 5.83251L49.571 5.74498L49.495 5.65947L49.42 5.5739L49.345 5.48832L49.269 5.40667L49.193 5.32109L49.116 5.23748L49.038 5.15386L48.965 5.07025L48.889 4.99049L48.812 4.90883L48.735 4.83103L48.657 4.75134L48.579 4.67354L48.501 4.59384L48.421 4.51604L48.34 4.43824L48.259 4.36044L48.179 4.28466L48.097 4.20882L48.016 4.13487L47.933 4.06099L47.85 3.98515L47.768 3.91323L47.711 3.86267L47.651 3.81015L47.59 3.75763L47.528 3.70321L47.464 3.65265L47.398 3.59817L47.333 3.54571L47.267 3.49124L47.201 3.43872L47.133 3.3843L47.068 3.3357L47.002 3.28514L46.938 3.23457L46.874 3.18787L46.812 3.14123L46.751 3.09844L46.71 3.0693L46.667 3.03429L46.622 2.99928L46.574 2.96426L46.528 2.92729L46.482 2.89424L46.46 2.88065L46.439 2.86896L46.417 2.85537L46.398 2.84564Z" fill="#6D25BF"/>
</svg>
