<svg width="22" height="22" viewBox="0 0 22 22" fill="none" xmlns="http://www.w3.org/2000/svg">
<path d="M6.7274 9.24458L11 4.972L15.2745 9.24642L17.7605 6.76042L11 0L4.24158 6.7584L6.72748 9.2444L6.7274 9.24458ZM0 11L2.48608 8.51356L4.97198 10.9995L2.4859 13.4856L0 11ZM6.7274 12.7557L11 17.028L15.2744 12.7537L17.7618 15.2383L17.7605 15.2397L11 22L4.24158 15.2416L4.23806 15.2381L6.72766 12.7554L6.7274 12.7557ZM17.0279 11.0011L19.514 8.51497L21.9999 11.0009L19.5139 13.487L17.0279 11.0011Z" fill="#F3BA2F"/>
<path d="M13.5214 10.9987H13.5224L11 8.47607L9.13554 10.34L8.92135 10.5543L8.47959 10.9961L8.47607 10.9996L8.47959 11.0032L11 13.5239L13.5226 11.0013L13.5238 10.9999L13.5215 10.9987" fill="#F3BA2F"/>
</svg>
