<svg width="50" height="50" viewBox="0 0 50 50" fill="none" xmlns="http://www.w3.org/2000/svg">
<path opacity="0.2" d="M25 50C38.8071 50 50 38.8071 50 25C50 11.1929 38.8071 0 25 0C11.1929 0 0 11.1929 0 25C0 38.8071 11.1929 50 25 50Z" fill="#001F3A"/>
<path fillRule="evenodd" clipRule="evenodd" d="M19.7734 22.8512L25.0026 17.6244L30.2338 22.8555L33.2747 19.8125L25.0026 11.5385L16.7304 19.8104L19.7734 22.8512ZM11.5385 25.0005L14.5804 21.9586L17.6223 25.0005L14.5804 28.0423L11.5385 25.0005ZM25.0026 32.3777L19.7734 27.1488L16.7261 30.1875L16.7304 30.1917L25.0026 38.4615L33.2747 30.1875L33.2769 30.1854L30.2338 27.1467L25.0026 32.3777ZM32.3776 25.0012L35.4196 21.9594L38.4615 25.0012L35.4196 28.0431L32.3776 25.0012ZM25.0026 21.9113L28.0882 24.9989H28.0903L28.0882 25.0011L25.0026 28.0887L21.917 25.0053L21.9127 24.9989L21.917 24.9947L22.4571 24.4546L22.7208 24.193L25.0026 21.9113Z" fill="white"/>
</svg>
