<svg width="65" height="69" viewBox="0 0 65 69" fill="none" xmlns="http://www.w3.org/2000/svg">
<g filter="url(#filter0_d)">
<path d="M27.0834 8.125H37.9167C43.6631 8.125 49.1741 10.4077 53.2374 14.471C57.3007 18.5343 59.5834 24.0453 59.5834 29.7917C59.5834 35.538 57.3007 41.049 53.2374 45.1123C49.1741 49.1756 43.6631 51.4583 37.9167 51.4583V60.9375C24.3751 55.5208 5.41675 47.3958 5.41675 29.7917C5.41675 24.0453 7.69948 18.5343 11.7628 14.471C15.8261 10.4077 21.3371 8.125 27.0834 8.125Z" fill="#F3BA2F"/>
</g>
<path d="M41.8397 26H43.2693C43.9833 26 44.6681 26.2634 45.173 26.7322C45.6779 27.2011 45.9616 27.837 45.9616 28.5V33.5C45.9616 34.163 45.6779 34.7989 45.173 35.2678C44.6681 35.7366 43.9833 36 43.2693 36H41.8397C41.5115 38.4166 40.2448 40.639 38.2774 42.25C36.31 43.861 33.777 44.75 31.1539 44.75V42.25C33.296 42.25 35.3504 41.4598 36.8651 40.0533C38.3798 38.6468 39.2308 36.7391 39.2308 34.75V27.25C39.2308 25.2609 38.3798 23.3532 36.8651 21.9467C35.3504 20.5402 33.296 19.75 31.1539 19.75C29.0118 19.75 26.9574 20.5402 25.4426 21.9467C23.9279 23.3532 23.077 25.2609 23.077 27.25V36H19.0385C18.3245 36 17.6397 35.7366 17.1348 35.2678C16.6298 34.7989 16.3462 34.163 16.3462 33.5V28.5C16.3462 27.837 16.6298 27.2011 17.1348 26.7322C17.6397 26.2634 18.3245 26 19.0385 26H20.4681C20.7966 23.5836 22.0634 21.3616 24.0308 19.7508C25.9982 18.1401 28.531 17.2513 31.1539 17.2513C33.7768 17.2513 36.3096 18.1401 38.277 19.7508C40.2444 21.3616 41.5111 23.5836 41.8397 26ZM19.0385 28.5V33.5H20.3847V28.5H19.0385ZM41.9231 28.5V33.5H43.2693V28.5H41.9231ZM25.4462 35.7312L26.8731 33.6112C28.1561 34.3575 29.64 34.7523 31.1539 34.75C32.6678 34.7523 34.1517 34.3575 35.4347 33.6112L36.8616 35.7312C35.151 36.7264 33.1725 37.2529 31.1539 37.25C29.1353 37.2529 27.1568 36.7264 25.4462 35.7312Z" fill="white"/>
<defs>
<filter id="filter0_d" x="-4" y="0" width="73" height="73" filterUnits="userSpaceOnUse" color-interpolation-filters="sRGB">
<feFlood flood-opacity="0" result="BackgroundImageFix"/>
<feColorMatrix in="SourceAlpha" type="matrix" values="0 0 0 0 0 0 0 0 0 0 0 0 0 0 0 0 0 0 127 0" result="hardAlpha"/>
<feOffset dy="4"/>
<feGaussianBlur stdDeviation="2"/>
<feComposite in2="hardAlpha" operator="out"/>
<feColorMatrix type="matrix" values="0 0 0 0 0.175 0 0 0 0 0.132708 0 0 0 0 0.132708 0 0 0 0.25 0"/>
<feBlend mode="normal" in2="BackgroundImageFix" result="effect1_dropShadow"/>
<feBlend mode="normal" in="SourceGraphic" in2="effect1_dropShadow" result="shape"/>
</filter>
</defs>
</svg>
