<svg width="30" height="30" viewBox="0 0 30 30" fill="none" xmlns="http://www.w3.org/2000/svg">
<path d="M11.9375 14.375C11.1916 14.375 10.4762 14.0787 9.94876 13.5512C9.42132 13.0238 9.125 12.3084 9.125 11.5625C9.125 10.8166 9.42132 10.1012 9.94876 9.57376C10.4762 9.04632 11.1916 8.75 11.9375 8.75C12.6834 8.75 13.3988 9.04632 13.9262 9.57376C14.4537 10.1012 14.75 10.8166 14.75 11.5625C14.75 12.3084 14.4537 13.0238 13.9262 13.5512C13.3988 14.0787 12.6834 14.375 11.9375 14.375ZM12.5 24.685V20.5C12.5 19.89 12.68 19.3288 13.005 18.8275C11.8908 18.669 10.7558 18.7446 9.67257 19.0496C8.5893 19.3546 7.58156 19.8822 6.71375 20.5988C8.08009 22.6207 10.1377 24.0742 12.5 24.6863V24.685ZM5.56625 18.325C7.39187 16.974 9.60385 16.2464 11.875 16.25C13.1788 16.25 14.4288 16.485 15.5837 16.915C16.6812 16.4862 17.99 16.25 19.375 16.25C21.45 16.25 23.3562 16.78 24.6325 17.695C25.0544 16.1823 25.1142 14.5916 24.8069 13.0515C24.4996 11.5115 23.8339 10.0654 22.8638 8.83054C21.8936 7.59564 20.6463 6.60659 19.2227 5.94348C17.7992 5.28037 16.2395 4.96185 14.6699 5.01371C13.1004 5.06557 11.5651 5.48636 10.1885 6.242C8.81181 6.99763 7.63247 8.06687 6.74595 9.36312C5.85944 10.6594 5.29067 12.1462 5.08572 13.7032C4.88077 15.2601 5.04539 16.8435 5.56625 18.325ZM23.5987 20.1075C23.1075 19.4412 21.4638 18.75 19.375 18.75C16.8675 18.75 15 19.7463 15 20.5V25C16.7348 25.001 18.44 24.5504 19.9479 23.6926C21.4557 22.8347 22.7144 21.5992 23.6 20.1075H23.5987ZM15 27.5C8.09625 27.5 2.5 21.9037 2.5 15C2.5 8.09625 8.09625 2.5 15 2.5C21.9037 2.5 27.5 8.09625 27.5 15C27.5 21.9037 21.9037 27.5 15 27.5ZM19.375 15.625C18.712 15.625 18.0761 15.3616 17.6072 14.8928C17.1384 14.4239 16.875 13.788 16.875 13.125C16.875 12.462 17.1384 11.8261 17.6072 11.3572C18.0761 10.8884 18.712 10.625 19.375 10.625C20.038 10.625 20.6739 10.8884 21.1428 11.3572C21.6116 11.8261 21.875 12.462 21.875 13.125C21.875 13.788 21.6116 14.4239 21.1428 14.8928C20.6739 15.3616 20.038 15.625 19.375 15.625Z" fill="white"/>
</svg>
