<svg width="50" height="50" viewBox="0 0 50 50" fill="none" xmlns="http://www.w3.org/2000/svg">
<path d="M25 0C11.1938 0 0 11.1604 0 24.9229C0 38.6854 11.1938 49.8458 25 49.8458C38.8083 49.8458 50 38.6854 50 24.9229C50 11.1604 38.8063 0 25 0ZM23.8729 10C27.8521 9.72917 31.9479 10.8229 35.1896 14.0292C38.1604 17.0229 40.4187 21.1958 40.3729 25.1063H44.8167L35.5583 35.4458L26.2979 25.1063H31.1167C31.1146 21.5146 30.2271 19.3938 27.4083 16.6146C24.6479 13.8313 21.8521 12.2188 17.0375 11.8167C19.1844 10.7951 21.502 10.1799 23.8729 10.0021V10ZM14.4458 14.4021L23.7062 24.7417H18.8875C18.8875 28.3333 19.775 30.4542 22.5917 33.2333C25.3542 36.0167 28.1479 37.6333 32.9625 38.0354C27.3708 40.6771 20.0042 40.9479 14.8167 35.8188C11.8437 32.825 9.58333 28.6521 9.63125 24.7417H5.18333L14.4458 14.4021Z" fill="#F3BA2F"/>
</svg>
