<svg width="38" height="44" viewBox="0 0 38 44" fill="none" xmlns="http://www.w3.org/2000/svg">
<path d="M14.7417 18.75C15.9917 18.75 17.0042 19.6875 16.9812 20.8333C16.9812 21.9792 15.9937 22.9167 14.7417 22.9167C13.5125 22.9167 12.5 21.9792 12.5 20.8333C12.5 19.6875 13.4896 18.75 14.7417 18.75ZM22.7583 18.75C24.0104 18.75 25 19.6875 25 20.8333C25 21.9792 24.0104 22.9167 22.7583 22.9167C21.5292 22.9167 20.5187 21.9792 20.5187 20.8333C20.5187 19.6875 21.5062 18.75 22.7583 18.75ZM33.1063 0C35.5292 0 37.5 2.0125 37.5 4.50625V43.75L32.8937 39.5937L30.3 37.1437L27.5562 34.5396L28.6938 38.5875H4.39375C1.97083 38.5875 0 36.575 0 34.0812V4.50625C0 2.0125 1.97083 0 4.39375 0H33.1042H33.1063ZM24.8354 28.5688C29.5708 28.4167 31.3937 25.2437 31.3937 25.2437C31.3937 18.2 28.3062 12.4896 28.3062 12.4896C25.2229 10.1292 22.2854 10.1937 22.2854 10.1937L21.9854 10.5437C25.6292 11.6812 27.3208 13.3229 27.3208 13.3229C25.3314 12.2021 23.1388 11.4882 20.8708 11.2229C19.4322 11.0604 17.979 11.0744 16.5437 11.2646C16.4146 11.2646 16.3062 11.2875 16.1792 11.3083C15.4292 11.375 13.6062 11.6583 11.3146 12.6875C10.5229 13.0583 10.05 13.3229 10.05 13.3229C10.05 13.3229 11.8292 11.5937 15.6854 10.4562L15.4708 10.1937C15.4708 10.1937 12.5354 10.1292 9.45 12.4917C9.45 12.4917 6.36458 18.2 6.36458 25.2437C6.36458 25.2437 8.16458 28.4146 12.9 28.5688C12.9 28.5688 13.6917 27.5854 14.3375 26.7542C11.6146 25.9208 10.5875 24.1708 10.5875 24.1708C10.5875 24.1708 10.8 24.325 11.1854 24.5437C11.2063 24.5646 11.2271 24.5875 11.2708 24.6083C11.3354 24.6542 11.4 24.675 11.4646 24.7187C12 25.025 12.5354 25.2646 13.0271 25.4625C13.9062 25.8125 14.9562 26.1625 16.1792 26.4042C18.0111 26.7632 19.8946 26.7703 21.7292 26.425C22.7977 26.2343 23.8403 25.9189 24.8354 25.4854C25.5854 25.2 26.4208 24.7833 27.3 24.1937C27.3 24.1937 26.2292 25.9875 23.4208 26.7979C24.0646 27.6292 24.8375 28.5688 24.8375 28.5688H24.8354Z" fill="white"/>
</svg>
