<svg width="50" height="50" viewBox="0 0 50 50" fill="none" xmlns="http://www.w3.org/2000/svg">
<path opacity="0.2" d="M49.8643 25.0005C49.8643 38.735 38.7306 49.8689 24.9964 49.8689C11.2619 49.8689 0.128082 38.735 0.128082 25.0005C0.128082 11.2662 11.2619 0.132385 24.9964 0.132385C38.7305 0.132385 49.8643 11.2662 49.8643 25.0005Z" fill="#505050"/>
<path d="M24.9168 11.4615L24.7632 11.9836V27.1333L24.9168 27.2866L31.9491 23.1298L24.9168 11.4615Z" fill="white"/>
<path d="M24.9169 11.4615L17.8846 23.1298L24.9169 27.2866V19.9335V11.4615Z" fill="white"/>
<path d="M24.9168 29.5745L24.8303 29.68V35.0767L24.9168 35.3295L31.9534 25.4199L24.9168 29.5745Z" fill="white"/>
<path d="M24.9169 35.3295V29.5745L17.8846 25.4199L24.9169 35.3295Z" fill="white"/>
<path d="M24.9168 27.2866L31.949 23.1298L24.9168 19.9335V27.2866Z" fill="white"/>
<path d="M17.8846 23.1298L24.9168 27.2866V19.9335L17.8846 23.1298Z" fill="white"/>
</svg>
