<svg width="1092" height="656" viewBox="0 0 1092 656" fill="none" xmlns="http://www.w3.org/2000/svg">
<g id="Frame" clip-path="url(#clip0)">
<path id="ground" d="M216.31 339.28L155.6 304.23L154.65 304.78L215.36 339.83L216.31 339.28ZM211.59 342L150.88 306.95L149.93 307.5L210.64 342.55L211.59 342ZM202.16 347.45L141.45 312.4L140.5 312.95L201.21 348L202.16 347.45ZM183.28 358.35L122.57 323.3L121.62 323.85L182.33 358.9L183.28 358.35ZM192.72 352.9L132.01 317.85L131.06 318.4L191.77 353.45L192.72 352.9ZM197.44 350.17L136.73 315.12L135.78 315.67L196.49 350.72L197.44 350.17ZM206.88 344.73L146.17 309.68L145.22 310.23L205.93 345.28L206.88 344.73ZM221.03 336.55L160.32 301.5L159.37 302.05L220.08 337.1L221.03 336.55ZM235.19 328.38L174.48 293.33L173.53 293.88L234.24 328.93L235.19 328.38ZM188 355.62L127.29 320.57L126.34 321.12L187.05 356.17L188 355.62ZM230.47 331.11L169.76 296.06L168.81 296.61L229.52 331.66L230.47 331.11ZM225.75 333.83L165.04 298.78L164.09 299.33L224.8 334.38L225.75 333.83ZM550.63 146.26L489.92 111.21L488.97 111.76L549.68 146.81L550.63 146.26ZM527.04 159.88L466.33 124.83L465.38 125.38L526.09 160.43L527.04 159.88ZM531.76 157.15L471.05 122.1L470.1 122.65L530.81 157.7L531.76 157.15ZM564.79 138.09L504.08 103.04L503.13 103.59L563.84 138.64L564.79 138.09ZM569.5 135.36L508.79 100.31L507.84 100.86L568.55 135.91L569.5 135.36ZM560.07 140.81L499.36 105.76L498.41 106.31L559.12 141.36L560.07 140.81ZM574.22 132.64L513.51 97.59L512.56 98.14L573.27 133.19L574.22 132.64ZM578.94 129.91L518.23 94.86L517.28 95.41L577.99 130.46L578.94 129.91ZM536.48 154.43L475.77 119.38L474.82 119.93L535.53 154.98L536.48 154.43ZM545.91 148.98L485.2 113.93L484.25 114.48L544.96 149.53L545.91 148.98ZM541.19 151.71L480.48 116.66L479.53 117.21L540.24 152.26L541.19 151.71ZM555.35 143.53L494.64 108.48L493.69 109.03L554.4 144.08L555.35 143.53ZM527.06 541.58L587.77 576.63L588.72 576.08L528.01 541.03L527.06 541.58ZM522.34 544.31L583.05 579.36L584 578.81L523.29 543.76L522.34 544.31ZM517.62 547.03L578.33 582.08L579.28 581.53L518.57 546.48L517.62 547.03ZM531.78 538.86L592.49 573.91L593.44 573.36L532.73 538.31L531.78 538.86ZM512.91 549.75L573.62 584.8L574.57 584.25L513.86 549.2L512.91 549.75ZM560.09 522.51L620.8 557.56L621.75 557.01L561.04 521.96L560.09 522.51ZM555.37 525.24L616.08 560.29L617.03 559.74L556.32 524.69L555.37 525.24ZM550.65 527.96L611.36 563.01L612.31 562.46L551.6 527.41L550.65 527.96ZM564.81 519.79L625.52 554.84L626.47 554.29L565.76 519.24L564.81 519.79ZM536.5 536.13L597.21 571.18L598.16 570.63L537.45 535.58L536.5 536.13ZM545.93 530.68L606.64 565.73L607.59 565.18L546.88 530.13L545.93 530.68ZM541.22 533.41L601.93 568.46L602.88 567.91L542.17 532.86L541.22 533.41ZM894.41 329.49L955.12 364.54L956.07 363.99L895.36 328.94L894.41 329.49ZM899.13 326.77L959.84 361.82L960.79 361.27L900.08 326.22L899.13 326.77ZM908.56 321.32L969.27 356.37L970.22 355.82L909.51 320.77L908.56 321.32ZM903.84 324.04L964.55 359.09L965.5 358.54L904.8 323.5L903.84 324.04ZM889.69 332.22L950.4 367.27L951.35 366.72L890.64 331.67L889.69 332.22ZM861.38 348.56L922.09 383.61L923.04 383.06L862.33 348.01L861.38 348.56ZM884.97 334.94L945.68 369.99L946.63 369.44L885.92 334.39L884.97 334.94ZM866.1 345.84L926.81 380.89L927.76 380.34L867.05 345.29L866.1 345.84ZM856.66 351.29L917.37 386.34L918.32 385.79L857.61 350.74L856.66 351.29ZM870.82 343.11L931.53 378.16L932.48 377.61L871.77 342.56L870.82 343.11ZM880.25 337.67L940.96 372.72L941.91 372.17L881.2 337.12L880.25 337.67ZM875.53 340.39L936.24 375.44L937.19 374.89L876.48 339.84L875.53 340.39ZM319.29 523.67L402.77 475.47H369.36L322.29 502.65C321.32 502.33 320.08 502.41 319.26 502.88C318.27 503.45 318.27 504.38 319.26 504.95C320.25 505.52 321.85 505.52 322.84 504.95C323.66 504.48 323.79 503.76 323.24 503.2L369.92 476.25H399.52L318.34 523.12L319.29 523.67ZM345.68 527.49C344.69 528.06 344.69 528.99 345.68 529.56C346.67 530.13 348.27 530.13 349.26 529.56C350.08 529.09 350.21 528.37 349.66 527.81L391.79 503.49L390.84 502.94L348.71 527.26C347.75 526.94 346.5 527.01 345.68 527.49ZM266.11 406.71L377.8 342.23L376.85 341.68L265.16 406.16L266.11 406.71ZM263.06 380.63V360.28H261.71V380.95L270.87 386.24L327.96 353.28L163.17 258.14L162.22 258.69L326.06 353.28L270.87 385.14L263.06 380.63ZM259.12 393.03L264.78 389.76L255.6 384.46V362.73L236.1 373.99L245.98 379.7L246.93 379.15L238 373.99L254.25 364.61V384.78L262.87 389.76L259.12 391.93L232.83 376.75L231.88 377.3L259.12 393.03ZM332.42 529.18C333.24 528.71 333.37 527.99 332.82 527.43L390.3 494.25L389.35 493.7L331.87 526.88C330.9 526.56 329.66 526.64 328.84 527.11C327.85 527.68 327.85 528.61 328.84 529.18C329.82 529.75 331.43 529.75 332.42 529.18ZM372.68 554.49L373.63 555.04L427.56 523.9V512.07L444.54 521.87L380.37 558.92L381.32 559.47L446.44 521.87L426.21 510.19V523.57L372.68 554.49ZM241.63 340.05L204.5 361.49L227.07 374.52L264.2 353.08L241.63 340.05ZM262.3 353.08L227.08 373.42L206.41 361.49L241.63 341.15L262.3 353.08ZM456.64 559.5L455.69 558.95L430.67 573.4L431.62 573.95L456.64 559.5ZM399.44 560.59L456.53 527.63L507.86 557.26H481.86L455.32 541.94L403.13 572.07L404.08 572.62L455.32 543.04L481.3 558.04H511.11L456.53 526.53L398.49 560.04L399.44 560.59ZM489.92 553.37L457.36 534.57L405.87 564.3L406.82 564.85L457.36 535.67L488.96 553.92L489.92 553.37ZM464.74 569.74L431.91 588.7L432.86 589.25L465.69 570.29L464.74 569.74ZM460.77 598.14L516.14 566.17H496.53L450.96 592.48L451.91 593.03L497.09 566.95H512.89L459.81 597.59L460.77 598.14ZM307.55 353.67L273.42 373.37V349.77L241.66 331.44L188.17 362.32L258.34 402.83L346.28 352.06L162.6 246L161.65 246.55L344.39 352.05L258.35 401.72L190.09 362.31L241.67 332.53L272.08 350.09V375.25L309.46 353.67L142.31 257.17L0 339.33L0.95 339.88L142.31 258.27L307.55 353.67ZM524.81 565.96L458.67 604.15L459.62 604.7L524.81 567.06L577.45 597.45L647.06 557.26L524.35 486.41L523.4 486.96L645.16 557.26L577.45 596.35L524.81 565.96ZM478.63 571.65L462.53 562.35L432.99 579.41L421.06 572.52L457.04 551.75L474.78 562H516.33V561.22H475.34L457.03 550.65L419.15 572.52L432.99 580.51L462.53 563.45L476.73 571.65L439.49 593.07L440.44 593.62L478.63 571.65ZM310.46 518.57L311.41 519.12L377.07 481.21L376.12 480.66L310.46 518.57ZM638.05 174.25L610.8 158.52L609.85 159.07L636.14 174.25L632.39 176.41L623.77 171.43H588.83L605.08 162.05L614.01 167.21L614.96 166.66L605.08 160.95L585.58 172.21H623.21L632.39 177.51L638.05 174.25ZM583.43 142.71L546.3 164.15L568.87 177.18L606 155.74L583.43 142.71ZM604.1 155.74L568.88 176.08L548.21 164.15L583.43 143.81L604.1 155.74ZM553.62 29.05L418.34 107.15L438.06 118.54L573.34 40.44L553.62 29.05ZM571.44 40.43L438.07 117.43L420.25 107.14L553.62 30.14L571.44 40.43ZM617.14 175.74H581.34V176.52H616.58L624.39 181.03L569.2 212.89L405.37 118.3L404.42 118.85L569.21 214L626.3 181.04L617.14 175.74ZM584.86 133.29L531.37 164.17L563.13 182.5H604.01L569.88 202.21L404.64 106.81L546 25.19L545.05 24.64L402.74 106.8L569.89 203.3L607.27 181.72H563.7L533.29 164.16L584.88 134.38L653.14 173.79L567.1 223.46L384.36 117.96L383.41 118.51L567.1 224.56L655.04 173.79L584.86 133.29ZM552.18 37.14L432.36 106.32L439.51 110.45L559.33 41.27L552.18 37.14ZM557.42 41.26L439.5 109.34L434.25 106.31L552.17 38.23L557.42 41.26ZM710.2 290.4C711.02 289.93 711.15 289.21 710.6 288.65L762.66 258.59V229.72L676.68 279.36L677.63 279.91L761.31 231.6V258.28L709.64 288.11C708.67 287.79 707.43 287.87 706.61 288.34C705.62 288.91 705.62 289.84 706.61 290.41C707.61 290.97 709.22 290.97 710.2 290.4ZM750.37 253.32C751.36 252.75 751.36 251.82 750.37 251.25C749.38 250.68 747.78 250.68 746.79 251.25C745.97 251.72 745.84 252.44 746.39 253L673.34 295.17C672.37 294.85 671.13 294.93 670.31 295.4C669.32 295.97 669.32 296.9 670.31 297.47C671.3 298.04 672.9 298.04 673.89 297.47C674.71 296.99 674.84 296.28 674.29 295.72L747.34 253.55C748.3 253.87 749.54 253.8 750.37 253.32ZM675.45 161.36L728.65 130.65L727.7 130.1L674.11 161.04V180.95L547.24 254.2L432.07 187.7V163.42L368.85 126.92L367.9 127.47L430.73 163.74V188.02L547.24 255.29L675.45 181.27V161.36ZM550.08 242.77L661.77 178.29L660.82 177.74L549.13 242.22L550.08 242.77ZM532.95 234.38L533.9 233.83L450.59 185.73V169.2L548.21 225.56L549.16 225.01L449.24 167.32V186.05L532.95 234.38ZM631.08 81.53L575.71 113.5H595.32L640.89 87.19L639.94 86.64L594.76 112.72H578.96L632.04 82.08L631.08 81.53ZM687.76 107.04L636.52 136.62L610.54 121.62H580.73L635.31 153.13L693.35 119.62L692.4 119.07L635.31 152.03L583.98 122.4H609.98L636.52 137.72L688.71 107.59L687.76 107.04ZM567.04 113.71L633.18 75.52L632.23 74.97L567.04 112.61L514.4 82.22L444.79 122.41L567.5 193.26L568.45 192.71L446.69 122.41L514.4 83.32L567.04 113.71ZM756.86 223.1C755.87 222.53 754.27 222.53 753.28 223.1C752.46 223.57 752.33 224.29 752.88 224.85L648.69 285L649.64 285.55L753.82 225.4C754.79 225.72 756.03 225.64 756.85 225.17C757.84 224.6 757.84 223.68 756.86 223.1ZM601.92 126.29L634.48 145.09L685.97 115.36L685.02 114.81L634.48 143.99L602.87 125.74L601.92 126.29ZM711.48 120.73L710.53 120.18L645.41 157.78L665.64 169.46V156.08L719.18 125.17L718.23 124.62L664.3 155.76V167.59L647.32 157.79L711.48 120.73ZM635.21 120.17L636.16 120.72L661.18 106.27L660.23 105.72L635.21 120.17ZM573.34 59.75L546.73 75.11L568.58 87.73L595.19 72.37L573.34 59.75ZM593.29 72.37L568.59 86.63L548.64 75.11L573.34 60.85L593.29 72.37ZM613.22 108.02L629.32 117.32L658.86 100.26L670.79 107.15L634.81 127.92L617.06 117.67H575.51V118.45H616.5L634.81 129.02L672.69 107.15L658.85 99.16L629.31 116.22L615.12 108.02L652.36 86.6L651.41 86.05L613.22 108.02ZM574.75 51.76L532.89 75.93L567.17 95.72L609.03 71.55L574.75 51.76ZM607.13 71.55L567.18 94.62L534.8 75.93L574.75 52.86L607.13 71.55ZM627.11 109.93L659.94 90.97L658.99 90.42L626.16 109.38L627.11 109.93ZM576.44 42.22L516.37 76.9L565.49 105.26L625.56 70.58L576.44 42.22ZM623.65 70.58L565.49 104.16L518.27 76.9L576.43 43.32L623.65 70.58ZM744.42 217.99C743.6 218.46 743.47 219.18 744.02 219.74L639.84 279.89L640.79 280.44L744.97 220.29C745.94 220.61 747.18 220.53 748 220.06C748.99 219.49 748.99 218.56 748 217.99C747.01 217.42 745.41 217.42 744.42 217.99ZM418.56 297.48C419.55 298.05 421.15 298.05 422.14 297.48C423.13 296.91 423.13 295.98 422.14 295.41C421.32 294.94 420.07 294.86 419.11 295.18L346.06 253.01C346.61 252.45 346.48 251.73 345.66 251.26C344.67 250.69 343.07 250.69 342.08 251.26C341.09 251.83 341.09 252.76 342.08 253.33C342.9 253.8 344.15 253.88 345.11 253.56L418.16 295.73C417.61 296.29 417.74 297.01 418.56 297.48ZM443.75 285L339.57 224.85C340.12 224.29 339.99 223.57 339.17 223.1C338.18 222.53 336.58 222.53 335.59 223.1C334.6 223.67 334.6 224.6 335.59 225.17C336.41 225.64 337.66 225.72 338.62 225.4L442.8 285.55L443.75 285ZM736.55 464.57L650.58 414.93L649.63 415.48L733.31 463.79H687.11L635.44 433.96C635.99 433.4 635.86 432.68 635.04 432.21C634.05 431.64 632.45 431.64 631.46 432.21C630.47 432.78 630.47 433.71 631.46 434.28C632.28 434.75 633.53 434.83 634.49 434.51L686.55 464.57H736.55ZM283.7 192.6C284.25 192.04 284.12 191.32 283.3 190.85C282.31 190.28 280.71 190.28 279.72 190.85C278.73 191.42 278.73 192.35 279.72 192.92C280.54 193.39 281.79 193.47 282.75 193.15L323.63 216.75V226.17L287.29 205.19L286.34 205.74L324.98 228.05V216.43L283.7 192.6ZM648.69 394.2L752.87 454.35C752.32 454.91 752.45 455.63 753.27 456.1C754.26 456.67 755.86 456.67 756.85 456.1C757.84 455.53 757.84 454.6 756.85 454.03C756.03 453.55 754.78 453.48 753.82 453.8L649.64 393.65L648.69 394.2ZM263.82 210.32C264.37 209.76 264.24 209.04 263.42 208.57C262.43 208 260.83 208 259.84 208.57C258.85 209.14 258.85 210.07 259.84 210.64C260.66 211.11 261.91 211.19 262.87 210.87L309.55 237.82V254.91L228.37 208.04L227.42 208.59L310.9 256.79V237.5L263.82 210.32ZM291.61 188.04L332.88 211.87H353L314.36 189.56L313.41 190.11L349.75 211.09H333.44L292.56 187.49C293.11 186.93 292.98 186.21 292.16 185.74C291.17 185.17 289.57 185.17 288.58 185.74C287.59 186.31 287.59 187.24 288.58 187.81C289.4 188.28 290.64 188.35 291.61 188.04ZM220.24 226.12L262.37 250.44L263.32 249.89L221.19 225.57C221.74 225.01 221.61 224.29 220.79 223.82C219.8 223.25 218.2 223.25 217.21 223.82C216.22 224.39 216.22 225.32 217.21 225.89C218.04 226.36 219.28 226.44 220.24 226.12ZM236.23 203.49L235.28 204.04L300.94 241.95L301.89 241.4L236.23 203.49ZM329.77 229.72V258.59L381.83 288.65C381.28 289.21 381.41 289.93 382.23 290.4C383.22 290.97 384.82 290.97 385.81 290.4C386.8 289.83 386.8 288.9 385.81 288.33C384.99 287.86 383.74 287.78 382.78 288.1L331.11 258.27V231.59L414.79 279.9L415.74 279.35L329.77 229.72ZM622.75 411.24C621.76 410.67 620.16 410.67 619.17 411.24C618.18 411.81 618.18 412.74 619.17 413.31C619.99 413.78 621.24 413.86 622.2 413.54L695.25 455.71C694.7 456.27 694.83 456.99 695.65 457.46C696.64 458.03 698.24 458.03 699.23 457.46C700.22 456.89 700.22 455.96 699.23 455.39C698.41 454.92 697.16 454.84 696.2 455.16L623.15 412.99C623.71 412.43 623.58 411.71 622.75 411.24ZM469.69 267.96C470.68 268.53 472.28 268.53 473.27 267.96C474.26 267.39 474.26 266.46 473.27 265.89C472.45 265.42 471.2 265.34 470.24 265.66L397.19 223.49C397.74 222.93 397.61 222.21 396.79 221.74C395.8 221.17 394.2 221.17 393.21 221.74C392.22 222.31 392.22 223.24 393.21 223.81C394.03 224.29 395.28 224.36 396.24 224.04L469.29 266.21C468.74 266.77 468.87 267.49 469.69 267.96ZM338.06 144.7L337.11 145.25L390.84 176.27L391.79 175.72L338.06 144.7ZM339.97 157L389.35 185.51L390.3 184.96L340.92 156.45C341.47 155.89 341.34 155.17 340.52 154.7C339.53 154.13 337.93 154.13 336.94 154.7C335.95 155.27 335.95 156.2 336.94 156.77C337.76 157.24 339 157.31 339.97 157ZM619.18 265.9C618.19 266.47 618.19 267.4 619.18 267.97C620.17 268.54 621.77 268.54 622.76 267.97C623.58 267.5 623.71 266.78 623.16 266.22L696.21 224.05C697.18 224.37 698.42 224.29 699.24 223.82C700.23 223.25 700.23 222.32 699.24 221.75C698.25 221.18 696.65 221.18 695.66 221.75C694.84 222.22 694.71 222.94 695.26 223.5L622.21 265.67C621.24 265.35 620 265.42 619.18 265.9ZM634.47 244.69C633.5 244.37 632.26 244.45 631.44 244.92C630.45 245.49 630.45 246.42 631.44 246.99C632.43 247.56 634.03 247.56 635.02 246.99C635.84 246.52 635.97 245.8 635.42 245.24L687.09 215.41H733.29L649.61 263.72L650.56 264.27L736.54 214.63H686.53L634.47 244.69ZM311.42 160.08L310.47 160.63L376.13 198.54L377.08 197.99L311.42 160.08ZM322.29 176.55L369.36 203.73H402.77L319.29 155.53L318.34 156.08L399.52 202.95H369.92L323.25 176C323.8 175.44 323.67 174.72 322.85 174.25C321.86 173.68 320.26 173.68 319.27 174.25C318.28 174.82 318.28 175.75 319.27 176.32C320.08 176.8 321.33 176.87 322.29 176.55ZM673.88 381.72C672.89 381.15 671.29 381.15 670.3 381.72C669.31 382.29 669.31 383.22 670.3 383.79C671.12 384.26 672.37 384.34 673.33 384.02L746.38 426.19C745.83 426.75 745.96 427.47 746.78 427.94C747.77 428.51 749.37 428.51 750.36 427.94C751.35 427.37 751.35 426.44 750.36 425.87C749.54 425.4 748.29 425.32 747.33 425.64L674.28 383.47C674.83 382.91 674.7 382.2 673.88 381.72ZM250.39 284.79H279.02L362.33 332.89L363.28 332.34L279.58 284.01H247.15L347.07 341.7L348.02 341.15L250.39 284.79ZM762.67 449.49V420.62L710.61 390.56C711.16 390 711.03 389.28 710.21 388.81C709.22 388.24 707.62 388.24 706.63 388.81C705.64 389.38 705.64 390.31 706.63 390.88C707.45 391.35 708.7 391.43 709.66 391.11L761.33 420.94V447.62L677.65 399.31L676.7 399.86L762.67 449.49ZM489.19 254.72C488.64 255.28 488.77 256 489.59 256.47C490.58 257.04 492.18 257.04 493.17 256.47C494.16 255.9 494.16 254.97 493.17 254.4C492.35 253.93 491.1 253.85 490.14 254.17L412.61 209.41H364.67L295.32 169.37L294.37 169.92L364.12 210.19H412.06L489.19 254.72ZM355.89 214.63L441.86 264.27L442.81 263.72L359.13 215.41H405.33L457 245.24C456.45 245.8 456.58 246.52 457.4 246.99C458.39 247.56 459.99 247.56 460.98 246.99C461.97 246.42 461.97 245.49 460.98 244.92C460.16 244.45 458.91 244.37 457.95 244.69L405.89 214.63H355.89ZM950.39 405.4L1070.21 336.22L1063.06 332.09L943.24 401.27L950.39 405.4ZM945.15 401.27L1063.07 333.19L1068.32 336.22L950.39 404.3L945.15 401.27ZM864.75 271.5L918.68 240.36L917.73 239.81L864.19 270.72H841.01L861.24 282.4L926.36 244.8L925.41 244.25L861.24 281.3L844.26 271.5H864.75ZM720.41 375.55C720.96 374.99 720.83 374.27 720.01 373.8C719.02 373.23 717.42 373.23 716.43 373.8C715.44 374.37 715.44 375.3 716.43 375.87C717.25 376.34 718.5 376.42 719.46 376.1L803.87 424.84H838.86L891.6 455.29L892.55 454.74L839.41 424.06H804.42L720.41 375.55ZM694.26 339.08L821.13 265.83H855.61L909.2 234.89L908.25 234.34L855.05 265.05H820.57L692.36 339.07L808.87 406.34H850.92L913.75 442.61L914.7 442.06L851.48 405.56H809.43L694.26 339.08ZM826.69 273.5L825.74 272.95L714.05 337.43L715 337.98L826.69 273.5ZM923.88 319.73V302.52L897.9 287.52L949.14 257.94L948.19 257.39L896 287.53L922.53 302.85V317.86L871.2 288.23L928.29 255.27L927.34 254.72L869.3 288.23L923.88 319.73ZM799.79 327.38L922.5 398.23L992.11 358.04L939.47 327.65L1004.66 290.01L1003.71 289.46L937.57 327.65L990.21 358.04L922.5 397.13L800.74 326.83L799.79 327.38ZM945.08 293.51L977.91 274.55L976.96 274L944.13 292.96L945.08 293.51ZM781.03 519.12L781.98 518.57L716.32 480.66L715.37 481.21L781.03 519.12ZM984.53 278.38L947.44 299.88L933.24 291.68L962.78 274.62L948.94 266.63L911.06 288.5L929.37 299.07V322.73H930.72V298.74L912.97 288.49L948.95 267.72L960.88 274.61L931.34 291.67L947.44 300.97L985.49 278.92L984.53 278.38ZM916.74 306.95L885.14 288.7L935.68 259.52L934.73 258.97L883.24 288.7L915.8 307.5L916.74 306.95ZM984.47 285.56L983.52 285.01L937.95 311.32V322.64L993.32 290.67L992.37 290.12L939.29 320.76V311.64L984.47 285.56ZM398.6 170.65V190.85L483.01 239.59C482.46 240.15 482.59 240.87 483.41 241.34C484.4 241.91 486 241.91 486.99 241.34C487.98 240.77 487.98 239.84 486.99 239.27C486.17 238.8 484.92 238.72 483.96 239.04L399.94 190.53V170.33L346.8 139.65L345.85 140.2L398.6 170.65ZM800.83 491.17L759.56 467.34H739.44L778.08 489.65L779.03 489.1L742.69 468.12H759L799.88 491.72C799.33 492.28 799.46 493 800.28 493.47C801.27 494.04 802.87 494.04 803.86 493.47C804.85 492.9 804.85 491.97 803.86 491.4C803.04 490.92 801.8 490.85 800.83 491.17ZM347.48 220.29L451.66 280.44L452.61 279.89L348.43 219.74C348.98 219.18 348.85 218.46 348.03 217.99C347.04 217.42 345.44 217.42 344.45 217.99C343.46 218.56 343.46 219.49 344.45 220.06C345.27 220.53 346.51 220.61 347.48 220.29ZM744.97 458.91L640.79 398.76L639.84 399.31L744.02 459.46C743.47 460.02 743.6 460.74 744.42 461.21C745.41 461.78 747.01 461.78 748 461.21C748.99 460.64 748.99 459.71 748 459.14C747.17 458.67 745.93 458.59 744.97 458.91ZM770.15 502.65L723.08 475.47H689.67L773.15 523.67L774.1 523.12L692.92 476.25H722.52L769.2 503.2C768.65 503.76 768.78 504.48 769.6 504.95C770.59 505.52 772.19 505.52 773.18 504.95C774.17 504.38 774.17 503.45 773.18 502.88C772.36 502.41 771.12 502.33 770.15 502.65ZM603.26 424.48C603.81 423.92 603.68 423.2 602.86 422.73C601.87 422.16 600.27 422.16 599.28 422.73C598.29 423.3 598.29 424.23 599.28 424.8C600.1 425.27 601.35 425.35 602.31 425.03L679.84 469.79H727.78L797.13 509.83L798.08 509.28L728.33 469.01H680.39L603.26 424.48ZM808.74 486.6C808.19 487.16 808.32 487.88 809.14 488.35C810.13 488.92 811.73 488.92 812.72 488.35C813.71 487.78 813.71 486.85 812.72 486.28C811.9 485.81 810.65 485.73 809.69 486.05L768.81 462.45V453.03L805.15 474.01L806.1 473.46L767.46 451.15V462.77L808.74 486.6ZM871.55 462.81L814.07 429.63L813.12 430.18L870.6 463.36C870.05 463.92 870.18 464.64 871 465.11C871.99 465.68 873.59 465.68 874.58 465.11C875.57 464.54 875.57 463.61 874.58 463.04C873.76 462.57 872.51 462.49 871.55 462.81ZM690.21 370.23C689.22 370.8 689.22 371.73 690.21 372.3C691.03 372.77 692.28 372.85 693.24 372.53L770.37 417.06V444.74L840.12 485.01L841.07 484.46L771.72 444.42V416.74L694.19 371.98C694.74 371.42 694.61 370.7 693.79 370.23C692.8 369.66 691.19 369.66 690.21 370.23ZM828.63 468.89C828.08 469.45 828.21 470.17 829.03 470.64C830.02 471.21 831.62 471.21 832.61 470.64C833.6 470.07 833.6 469.14 832.61 468.57C831.79 468.1 830.54 468.02 829.58 468.34L782.9 441.39V424.3L864.08 471.17L865.03 470.62L781.55 422.42V441.71L828.63 468.89ZM872.2 453.08L830.07 428.76L829.12 429.31L871.25 453.63C870.7 454.19 870.83 454.91 871.65 455.38C872.64 455.95 874.24 455.95 875.23 455.38C876.22 454.81 876.22 453.88 875.23 453.31C874.41 452.84 873.16 452.77 872.2 453.08ZM856.21 475.72L857.16 475.17L791.5 437.26L790.55 437.81L856.21 475.72ZM925.44 287.73L926.39 288.28L951.41 273.83L950.46 273.28L925.44 287.73ZM778.09 189.55L739.45 211.86H759.57L800.84 188.03C801.81 188.35 803.05 188.27 803.87 187.8C804.86 187.23 804.86 186.3 803.87 185.73C802.88 185.16 801.28 185.16 800.29 185.73C799.47 186.2 799.34 186.92 799.89 187.48L759.01 211.08H742.7L779.04 190.1L778.09 189.55ZM841.46 394.87H812.83L729.52 346.77L728.57 347.32L812.27 395.65H844.7L744.78 337.96L743.83 338.51L841.46 394.87ZM791.5 241.95L857.16 204.04L856.21 203.49L790.55 241.4L791.5 241.95ZM770.37 262.14L693.24 306.67C692.27 306.35 691.03 306.43 690.21 306.9C689.22 307.47 689.22 308.4 690.21 308.97C691.2 309.54 692.8 309.54 693.79 308.97C694.61 308.49 694.74 307.78 694.19 307.22L771.72 262.46V234.78L841.07 194.74L840.12 194.19L770.37 234.46V262.14ZM679.83 209.41L602.3 254.17C601.33 253.85 600.09 253.93 599.27 254.4C598.28 254.97 598.28 255.9 599.27 256.47C600.26 257.04 601.86 257.04 602.85 256.47C603.67 255.99 603.8 255.28 603.25 254.72L680.38 210.19H728.32L798.07 169.92L797.12 169.37L727.77 209.41H679.83ZM746.76 151.71C747.75 151.14 747.75 150.21 746.76 149.64C745.77 149.07 744.17 149.07 743.18 149.64C742.36 150.11 742.23 150.83 742.78 151.39L700.65 175.71L701.6 176.26L743.73 151.94C744.7 152.26 745.94 152.19 746.76 151.71ZM692.5 170.32V190.52L608.48 239.03C607.51 238.71 606.27 238.79 605.45 239.26C604.46 239.83 604.46 240.76 605.45 241.33C606.44 241.9 608.04 241.9 609.03 241.33C609.85 240.86 609.98 240.14 609.43 239.58L693.84 190.84V170.64L746.58 140.19L745.63 139.64L692.5 170.32ZM782.9 237.81L829.58 210.86C830.55 211.18 831.79 211.1 832.61 210.63C833.6 210.06 833.6 209.13 832.61 208.56C831.62 207.99 830.02 207.99 829.03 208.56C828.21 209.03 828.08 209.75 828.63 210.31L781.56 237.49V256.78L865.04 208.58L864.09 208.03L782.9 254.9V237.81ZM703.1 185.51L760.58 152.33C761.55 152.65 762.79 152.57 763.61 152.1C764.6 151.53 764.6 150.6 763.61 150.03C762.62 149.46 761.02 149.46 760.03 150.03C759.21 150.5 759.08 151.22 759.63 151.78L702.15 184.96L703.1 185.51ZM723.08 203.73L770.15 176.55C771.12 176.87 772.36 176.79 773.18 176.32C774.17 175.75 774.17 174.82 773.18 174.25C772.19 173.68 770.59 173.68 769.6 174.25C768.78 174.72 768.65 175.44 769.2 176L722.52 202.95H692.92L774.1 156.08L773.15 155.53L689.67 203.73H723.08ZM716.32 198.54L781.98 160.63L781.03 160.08L715.37 197.99L716.32 198.54ZM806.11 205.73L805.16 205.18L768.82 226.16V216.74L809.7 193.14C810.67 193.46 811.91 193.38 812.73 192.91C813.72 192.34 813.72 191.41 812.73 190.84C811.74 190.27 810.14 190.27 809.15 190.84C808.33 191.31 808.2 192.03 808.75 192.59L767.48 216.42V228.04L806.11 205.73ZM784.29 326L818.42 306.29V329.89L850.18 348.22L903.67 317.34L833.5 276.83L745.56 327.6L929.25 433.65L930.2 433.1L747.46 327.6L833.5 277.93L901.76 317.34L850.17 347.12L819.76 329.56V304.4L782.39 326L949.54 422.5L1091.85 340.34L1090.9 339.79L949.54 421.4L784.29 326ZM850.22 339.62L887.35 318.18L864.78 305.15L827.65 326.59L850.22 339.62ZM829.55 326.58L864.77 306.24L885.44 318.17L850.22 338.51L829.55 326.58ZM832.72 286.64L827.07 289.9L836.25 295.2V316.93L855.75 305.67L845.87 299.96L844.92 300.51L853.85 305.67L837.6 315.05V294.88L828.98 289.9L832.73 287.74L859.03 302.92L859.98 302.37L832.72 286.64ZM828.79 299.04V319.39H830.14V298.72L820.98 293.43L763.89 326.39L928.68 421.53L929.63 420.98L765.79 326.39L820.98 294.53L828.79 299.04ZM948.95 413.49L1084.23 335.39L1064.5 324L929.22 402.1L948.95 413.49ZM931.13 402.11L1064.5 325.11L1082.32 335.4L948.95 412.4L931.13 402.11ZM866.48 220.84C867.47 220.27 867.47 219.34 866.48 218.77C865.49 218.2 863.89 218.2 862.9 218.77C862.08 219.24 861.95 219.96 862.5 220.52L813.12 249.03L814.07 249.58L863.45 221.07C864.42 221.38 865.66 221.31 866.48 220.84ZM830.07 250.44L883.8 219.42L882.85 218.87L829.12 249.89L830.07 250.44ZM803.87 254.37L719.46 303.11C718.49 302.79 717.25 302.87 716.43 303.34C715.44 303.91 715.44 304.84 716.43 305.41C717.42 305.98 719.02 305.98 720.01 305.41C720.83 304.93 720.96 304.22 720.41 303.66L804.43 255.15H839.42L892.56 224.47L891.61 223.92L838.87 254.37H803.87ZM1004.44 339.37L1031.05 324.01L1009.2 311.39L982.59 326.75L1004.44 339.37ZM984.49 326.75L1009.19 312.49L1029.14 324.01L1004.44 338.27L984.49 326.75ZM1001.34 356.9L1061.41 322.22L1012.29 293.86L952.22 328.54L1001.34 356.9ZM954.13 328.54L1012.29 294.96L1059.5 322.22L1001.34 355.8L954.13 328.54ZM1003.03 347.36L1044.89 323.19L1010.61 303.4L968.75 327.57L1003.03 347.36ZM970.65 327.57L1010.6 304.5L1042.97 323.19L1003.02 346.26L970.65 327.57ZM558.9 445.29L557.95 445.84L641.26 493.94V510.47L543.64 454.11L542.69 454.66L642.61 512.35V493.62L558.9 445.29ZM372.44 373.8C371.62 374.27 371.49 374.99 372.04 375.55L288.02 424.06H253.03L199.89 454.74L200.84 455.29L253.58 424.84H288.57L372.99 376.1C373.96 376.42 375.2 376.34 376.02 375.87C377.01 375.3 377.01 374.37 376.02 373.8C375.03 373.22 373.43 373.22 372.44 373.8ZM144.41 379.79L158.6 387.98L129.06 405.04L142.9 413.03L180.78 391.16L162.47 380.59V356.93H161.12V380.92L178.87 391.17L142.89 411.94L130.96 405.05L160.5 387.99L144.4 378.69L106.35 400.74L107.3 401.29L144.41 379.79ZM228.36 471.17L309.54 424.3V441.39L262.86 468.34C261.89 468.02 260.65 468.1 259.83 468.57C258.84 469.14 258.84 470.07 259.83 470.64C260.82 471.21 262.42 471.21 263.41 470.64C264.23 470.16 264.36 469.45 263.81 468.89L310.88 441.71V422.42L227.4 470.62L228.36 471.17ZM107.38 394.11L108.33 394.66L153.9 368.35V357.03L98.53 389L99.48 389.55L152.56 358.91V368.03L107.38 394.11ZM236.23 475.72L301.89 437.81L300.94 437.26L235.28 475.17L236.23 475.72ZM225.96 458.37C224.97 458.94 224.97 459.87 225.96 460.44C226.95 461.01 228.55 461.01 229.54 460.44C230.36 459.97 230.49 459.25 229.94 458.69L279.32 430.18L278.37 429.63L228.99 458.14C228.03 457.82 226.78 457.89 225.96 458.37ZM166.4 391.93L165.45 391.38L140.43 405.83L141.38 406.38L166.4 391.93ZM167.97 359.93V377.14L193.95 392.14L142.71 421.72L143.66 422.27L195.85 392.14L169.31 376.82V361.81L220.64 391.44L163.55 424.4L164.5 424.95L222.54 391.44L167.97 359.93ZM101.63 321.63L169.34 282.54L291.1 352.84L292.05 352.29L169.34 281.44L99.73 321.63L152.37 352.02L87.18 389.66L88.13 390.21L154.27 352.02L101.63 321.63ZM250.83 408.95L230.6 397.27L165.48 434.87L166.43 435.42L230.6 398.37L247.58 408.17H227.1L173.17 439.31L174.12 439.86L227.66 408.95H250.83ZM146.77 386.15L113.94 405.11L114.89 405.66L147.72 386.7L146.77 386.15ZM175.11 372.71L206.72 390.96L156.18 420.14L157.13 420.69L208.62 390.96L176.06 372.16L175.11 372.71ZM457.97 434.51C458.94 434.83 460.18 434.75 461 434.28C461.99 433.71 461.99 432.78 461 432.21C460.01 431.64 458.41 431.64 457.42 432.21C456.6 432.68 456.47 433.4 457.02 433.96L405.35 463.79H359.15L442.83 415.48L441.88 414.93L355.9 464.57H405.91L457.97 434.51ZM292.15 493.47C292.97 493 293.1 492.28 292.55 491.72L333.43 468.12H349.74L313.4 489.1L314.35 489.65L353 467.34H332.88L291.61 491.17C290.64 490.85 289.4 490.93 288.58 491.4C287.59 491.97 287.59 492.9 288.58 493.47C289.56 494.04 291.17 494.04 292.15 493.47ZM209.59 460.33L263.32 429.31L262.37 428.76L208.64 459.78L209.59 460.33ZM493.17 424.8C494.16 424.23 494.16 423.3 493.17 422.73C492.18 422.16 490.58 422.16 489.59 422.73C488.77 423.2 488.64 423.92 489.19 424.48L412.06 469.01H364.12L294.37 509.28L295.32 509.83L364.67 469.79H412.61L490.14 425.03C491.1 425.35 492.35 425.27 493.17 424.8ZM282.75 486.05C281.78 485.73 280.54 485.81 279.72 486.28C278.73 486.85 278.73 487.78 279.72 488.35C280.71 488.92 282.31 488.92 283.3 488.35C284.12 487.88 284.25 487.16 283.7 486.6L324.97 462.77V451.15L286.33 473.46L287.28 474.01L323.62 453.03V462.45L282.75 486.05ZM469.69 411.24C468.87 411.72 468.74 412.43 469.29 412.99L396.24 455.16C395.27 454.84 394.03 454.92 393.21 455.39C392.22 455.96 392.22 456.89 393.21 457.46C394.2 458.03 395.8 458.03 396.79 457.46C397.61 456.99 397.74 456.27 397.19 455.71L470.24 413.54C471.21 413.86 472.45 413.78 473.27 413.31C474.26 412.74 474.26 411.81 473.27 411.24C472.28 410.67 470.68 410.67 469.69 411.24ZM342.08 425.88C341.09 426.45 341.09 427.38 342.08 427.95C343.07 428.52 344.67 428.52 345.66 427.95C346.48 427.48 346.61 426.76 346.06 426.2L419.11 384.03C420.08 384.35 421.32 384.27 422.14 383.8C423.13 383.23 423.13 382.3 422.14 381.73C421.15 381.16 419.55 381.16 418.56 381.73C417.74 382.2 417.61 382.92 418.16 383.48L345.11 425.65C344.14 425.33 342.9 425.4 342.08 425.88ZM398.66 370.23C397.84 370.7 397.71 371.42 398.26 371.98L320.73 416.74V444.42L251.38 484.46L252.33 485.01L322.08 444.74V417.06L399.21 372.53C400.18 372.85 401.42 372.77 402.24 372.3C403.23 371.73 403.23 370.8 402.24 370.23C401.25 369.66 399.65 369.66 398.66 370.23ZM382.24 388.8C381.42 389.27 381.29 389.99 381.84 390.55L329.78 420.61V449.48L415.76 399.84L414.81 399.29L331.13 447.6V420.92L382.8 391.09C383.77 391.41 385.01 391.33 385.83 390.86C386.82 390.29 386.82 389.36 385.83 388.79C384.83 388.23 383.23 388.23 382.24 388.8ZM451.66 398.76L347.48 458.91C346.51 458.59 345.27 458.67 344.45 459.14C343.46 459.71 343.46 460.64 344.45 461.21C345.44 461.78 347.04 461.78 348.03 461.21C348.85 460.74 348.98 460.02 348.43 459.46L452.61 399.31L451.66 398.76ZM442.8 393.65L338.62 453.8C337.65 453.48 336.41 453.56 335.59 454.03C334.6 454.6 334.6 455.53 335.59 456.1C336.58 456.67 338.18 456.67 339.17 456.1C339.99 455.63 340.12 454.91 339.57 454.35L443.75 394.2L442.8 393.65ZM372.99 303.11L288.58 254.37H253.59L200.85 223.92L199.9 224.47L253.04 255.15H288.03L372.05 303.66C371.5 304.22 371.63 304.94 372.45 305.41C373.44 305.98 375.04 305.98 376.03 305.41C377.02 304.84 377.02 303.91 376.03 303.34C375.2 302.86 373.95 302.79 372.99 303.11ZM178.1 237.05L177.15 237.6L240.37 274.1H282.42L397.59 340.59L270.72 413.84H236.24L182.65 444.78L183.6 445.33L236.8 414.62H271.28L399.49 340.6L282.98 273.33H240.93L178.1 237.05ZM416.4 518.31L363.2 549.02L364.15 549.57L417.74 518.63V498.72L544.61 425.47L659.78 491.96V516.24L723 552.74L723.95 552.19L661.12 515.92V491.64L544.61 424.37L416.4 498.4V518.31ZM399.94 488.68L483.96 440.17C484.93 440.49 486.17 440.41 486.99 439.94C487.98 439.37 487.98 438.44 486.99 437.87C486 437.3 484.4 437.3 483.41 437.87C482.59 438.34 482.46 439.06 483.01 439.62L398.59 488.36V508.56L345.85 539.01L346.8 539.56L399.94 508.88V488.68ZM506.98 546.38L560.47 515.5L528.71 497.17H487.83L521.96 477.47L687.2 572.87L545.84 654.48L546.79 655.03L689.1 572.87L521.95 476.37L484.57 497.95H528.14L558.55 515.51L506.97 545.29L438.71 505.88L524.75 456.21L707.49 561.71L708.44 561.16L524.76 455.1L436.82 505.87L506.98 546.38ZM541.77 436.9L430.08 501.38L431.03 501.93L542.72 437.45L541.77 436.9ZM605.45 437.87C604.46 438.44 604.46 439.37 605.45 439.94C606.27 440.42 607.52 440.49 608.48 440.17L692.5 488.68V508.88L745.64 539.56L746.59 539.01L693.85 508.56V488.36L609.44 439.62C609.99 439.06 609.86 438.34 609.04 437.87C608.04 437.3 606.44 437.3 605.45 437.87ZM754.38 534.5L755.33 533.95L701.6 502.93L700.65 503.48L754.38 534.5ZM217.86 214.09C216.87 214.66 216.87 215.59 217.86 216.16C218.68 216.63 219.93 216.71 220.89 216.39L278.37 249.57L279.32 249.02L221.84 215.84C222.39 215.28 222.26 214.56 221.44 214.09C220.45 213.52 218.85 213.52 217.86 214.09ZM402.24 308.97C403.23 308.4 403.23 307.47 402.24 306.9C401.42 306.43 400.17 306.35 399.21 306.67L322.08 262.14V234.46L252.33 194.19L251.38 194.74L320.73 234.78V262.46L398.26 307.22C397.71 307.78 397.84 308.5 398.66 308.97C399.65 309.54 401.25 309.54 402.24 308.97ZM508.42 536.96L545.55 515.52L522.98 502.49L485.85 523.93L508.42 536.96ZM487.75 523.92L522.98 503.58L543.65 515.51L508.42 535.85L487.75 523.92ZM752.48 522.2L703.1 493.69L702.15 494.24L751.53 522.75C750.98 523.31 751.11 524.03 751.93 524.5C752.92 525.07 754.52 525.07 755.51 524.5C756.5 523.93 756.5 523 755.51 522.43C754.68 521.96 753.44 521.89 752.48 522.2ZM88.82 332.31L46.96 356.48L81.24 376.27L123.1 352.1L88.82 332.31ZM121.19 352.1L81.24 375.17L48.87 356.48L88.82 333.41L121.19 352.1ZM523.26 591.94L496.65 607.3L518.5 619.92L545.11 604.56L523.26 591.94ZM543.21 604.56L518.51 618.82L498.56 607.3L523.26 593.04L543.21 604.56ZM90.51 322.77L30.44 357.45L79.56 385.81L139.63 351.13L90.51 322.77ZM137.72 351.13L79.56 384.71L32.35 357.45L90.51 323.87L137.72 351.13ZM141.46 274.27L21.64 343.44L28.79 347.57L148.61 278.39L141.46 274.27ZM146.7 278.39L28.79 346.47L23.54 343.44L141.46 275.36L146.7 278.39ZM142.9 266.18L7.62 344.28L27.34 355.67L162.62 277.57L142.9 266.18ZM160.71 277.56L27.34 354.56L9.53 344.28L142.9 267.28L160.71 277.56ZM87.41 340.3L60.8 355.66L82.65 368.28L109.26 352.92L87.41 340.3ZM107.36 352.92L82.66 367.18L62.71 355.66L87.41 341.4L107.36 352.92ZM453.79 505.42L481.04 521.15L481.99 520.6L455.69 505.42L459.44 503.25L468.06 508.23H503L486.75 517.61L477.82 512.45L476.87 513L486.75 518.71L506.25 507.45H468.62L459.44 502.15L453.79 505.42ZM474.7 503.92H510.5V503.14H475.25L467.44 498.63L522.63 466.77L686.47 561.36L687.42 560.81L522.63 465.67L465.54 498.63L474.7 503.92ZM653.78 561.13L518.5 639.23L538.22 650.62L673.5 572.52L653.78 561.13ZM671.6 572.52L538.23 649.52L520.41 639.23L653.78 562.23L671.6 572.52ZM526.36 574.41L466.29 609.09L515.41 637.45L575.48 602.77L526.36 574.41ZM573.57 602.77L515.41 636.35L468.2 609.09L526.36 575.51L573.57 602.77ZM524.67 583.95L482.81 608.12L517.09 627.91L558.95 603.74L524.67 583.95ZM557.05 603.74L517.1 626.81L484.73 608.12L524.68 585.05L557.05 603.74ZM652.34 569.22L532.52 638.4L539.67 642.53L659.49 573.35L652.34 569.22ZM657.59 573.35L539.67 641.43L534.42 638.4L652.34 570.32L657.59 573.35Z" fill="white"/>
<path id="light" d="M401.189 374.798L547.189 423.673L686 374.798L784.964 8.64893L315 10.2972L401.189 374.798Z" fill="url(#paint0_linear)" fill-opacity="0.67"/>
<g id="ether">
<path id="Vector" d="M539.888 378.56V307.417L480.893 270.72L539.888 378.56ZM476 259.768L539.888 299.501V143L476 259.768Z" fill="url(#paint1_linear)"/>
<path id="Vector_2" d="M539.888 378.56L598.898 270.72L539.888 307.417V378.56ZM539.888 143V299.501L603.791 259.768L539.888 143Z" fill="url(#paint2_linear)"/>
</g>
</g>
<defs>
<linearGradient id="paint0_linear" x1="576.886" y1="424.472" x2="568.043" y2="39.5579" gradientUnits="userSpaceOnUse">
<stop offset="0.046875" stop-color="white"/>
<stop offset="0.265625" stop-color="white" stop-opacity="0.69"/>
<stop offset="0.984375" stop-color="#AF9F9F" stop-opacity="0"/>
</linearGradient>
<linearGradient id="paint1_linear" x1="504.152" y1="178.273" x2="532.848" y2="353.057" gradientUnits="userSpaceOnUse">
<stop stop-color="#EBE0BE"/>
<stop offset="1" stop-color="#AF9E6A"/>
</linearGradient>
<linearGradient id="paint2_linear" x1="550.703" y1="384.82" x2="573.543" y2="186.603" gradientUnits="userSpaceOnUse">
<stop stop-color="#EBE0BE"/>
<stop offset="1" stop-color="#AF9E6A"/>
</linearGradient>
<clipPath id="clip0">
<rect width="1091.85" height="655.02" fill="white"/>
</clipPath>
</defs>
</svg>
