<svg width="26" height="26" viewBox="0 0 26 26" fill="none" xmlns="http://www.w3.org/2000/svg">
<path d="M13 23.8334C7.01674 23.8334 2.16666 18.9833 2.16666 13C2.16666 7.01677 7.01674 2.16669 13 2.16669C18.9832 2.16669 23.8333 7.01677 23.8333 13C23.8333 18.9833 18.9832 23.8334 13 23.8334ZM13 21.6667C15.2985 21.6667 17.5029 20.7536 19.1283 19.1283C20.7536 17.503 21.6667 15.2986 21.6667 13C21.6667 10.7015 20.7536 8.49708 19.1283 6.87176C17.5029 5.24645 15.2985 4.33335 13 4.33335C10.7014 4.33335 8.49705 5.24645 6.87173 6.87176C5.24642 8.49708 4.33332 10.7015 4.33332 13C4.33332 15.2986 5.24642 17.503 6.87173 19.1283C8.49705 20.7536 10.7014 21.6667 13 21.6667ZM11.9167 16.25H14.0833V18.4167H11.9167V16.25ZM14.0833 14.4679V15.1667H11.9167V13.5417C11.9167 13.2544 12.0308 12.9788 12.234 12.7757C12.4371 12.5725 12.7127 12.4584 13 12.4584C13.3077 12.4583 13.6092 12.3709 13.8692 12.2063C14.1292 12.0417 14.3371 11.8066 14.4687 11.5284C14.6004 11.2502 14.6503 10.9404 14.6127 10.6349C14.5752 10.3295 14.4516 10.041 14.2565 9.80301C14.0613 9.56503 13.8026 9.38735 13.5105 9.29065C13.2183 9.19396 12.9047 9.18221 12.6061 9.25678C12.3075 9.33136 12.0363 9.48919 11.8239 9.7119C11.6115 9.93462 11.4667 10.2131 11.4064 10.5149L9.28091 10.0891C9.41267 9.43053 9.71696 8.81876 10.1627 8.31632C10.6083 7.81389 11.1795 7.43882 11.8176 7.22945C12.4558 7.02008 13.1381 6.98393 13.7948 7.12469C14.4515 7.26544 15.0591 7.57806 15.5554 8.03058C16.0517 8.4831 16.4189 9.05929 16.6195 9.70026C16.8202 10.3412 16.847 11.024 16.6973 11.6787C16.5475 12.3334 16.2266 12.9366 15.7674 13.4267C15.3081 13.9168 14.727 14.2761 14.0833 14.4679Z" fill="white"/>
</svg>
