<svg width="551" height="520" viewBox="0 0 551 520" fill="none" xmlns="http://www.w3.org/2000/svg"  className='active'>
<path fillRule="evenodd" clipRule="evenodd" d="M55 276.5C55 142.019 164.019 33 298.5 33C432.98 33 542 142.019 542 276.5C542 410.981 432.98 520 298.5 520C164.019 520 55 410.981 55 276.5Z" fill="#6D25BF" fill-opacity="0.129412" className="svg-elem-1"></path>
<path fillRule="evenodd" clipRule="evenodd" d="M90 276.5C90 161.349 183.349 68 298.5 68C413.65 68 507 161.349 507 276.5C507 391.651 413.65 485 298.5 485C183.349 485 90 391.651 90 276.5Z" fill="#6D25BF" fill-opacity="0.25098" className="svg-elem-2"></path>
<path fillRule="evenodd" clipRule="evenodd" d="M419.97 154.61C487.08 221.72 487.08 330.526 419.97 397.636C352.857 464.746 244.051 464.746 176.941 397.636C109.831 330.526 109.831 221.72 176.941 154.61C244.051 87.5 352.857 87.5 419.97 154.61Z" fill="url(#paint0_linear)" className="svg-elem-3"></path>
<path fillRule="evenodd" clipRule="evenodd" d="M492 400C492 214.301 492 214.301 492 214.301C492 205.955 485.05 199 476.71 199C140.292 199 140.292 199 140.292 199C131.951 199 125 205.955 125 214.301C125 400 125 400 125 400H492Z" fill="#0E0E15" className="svg-elem-4"></path>
<path d="M405 237H403V360H405V237Z" fill="#A771E4" className="svg-elem-5"></path>
<path d="M368 237H365V360H368V237Z" fill="#A771E4" className="svg-elem-6"></path>
<path d="M330 237H328V360H330V237Z" fill="#A771E4" className="svg-elem-7"></path>
<path d="M293 237H291V360H293V237Z" fill="#A771E4" className="svg-elem-8"></path>
<path d="M256 237H253V360H256V237Z" fill="#A771E4" className="svg-elem-9"></path>
<path d="M218 237H216V360H218V237Z" fill="#A771E4" className="svg-elem-10"></path>
<path d="M431 375H187V377H431V375Z" fill="#A771E4" className="svg-elem-11"></path>
<path d="M196 248H151V253H196V248Z" fill="#EBE0BE" className="svg-elem-12"></path>
<path d="M196 260H151V265H196V260Z" fill="#EBE0BE" className="svg-elem-13"></path>
<path d="M196 273H151V278H196V273Z" fill="#EBE0BE" className="svg-elem-14"></path>
<path d="M196 285H151V290H196V285Z" fill="#EBE0BE" className="svg-elem-15"></path>
<path fillRule="evenodd" clipRule="evenodd" d="M154 235C154 232.791 155.791 231 158 231C160.209 231 162 232.791 162 235C162 237.209 160.209 239 158 239C155.791 239 154 237.209 154 235Z" fill="#F065A6" className="svg-elem-16"></path>
<path fillRule="evenodd" clipRule="evenodd" d="M169 235C169 232.791 171.015 231 173.5 231C175.985 231 178 232.791 178 235C178 237.209 175.985 239 173.5 239C171.015 239 169 237.209 169 235Z" fill="#6D25BF" className="svg-elem-17"></path>
<path fillRule="evenodd" clipRule="evenodd" d="M185 235C185 232.791 186.791 231 189 231C191.209 231 193 232.791 193 235C193 237.209 191.209 239 189 239C186.791 239 185 237.209 185 235Z" fill="#6D25BF" className="svg-elem-18"></path>
<path fillRule="evenodd" clipRule="evenodd" d="M417 245L379.24 257.762L391.22 268.179L366.226 296.047L328.47 245L290.194 299.432L254.001 256.199L185 346.312L191.249 351L254.001 268.7L290.194 311.934L328.47 258.283L365.444 308.548L396.69 272.867L408.67 283.545L417 245Z" fill="#6D25BF" className="svg-elem-19"></path>
<path fillRule="evenodd" clipRule="evenodd" d="M464.31 280.966C464.31 279.517 462.24 278.069 460.17 278.069C458.79 278.069 458.1 279.517 457.41 280.966C456.03 280.966 456.03 280.966 456.03 280.966C454.66 280.966 453.28 280.966 452.59 279.517C451.9 278.793 451.9 278.793 451.9 278.793C452.59 277.345 451.9 275.897 451.21 274.448C449.83 273 447.76 273 446.38 274.448C445 275.897 445 278.069 446.38 279.517C447.07 280.966 448.45 280.966 449.83 280.241C450.52 280.966 450.52 280.966 450.52 280.966C451.9 282.414 451.9 283.862 451.9 285.31C451.9 286.759 451.9 286.759 451.9 286.759C450.52 286.759 449.14 287.483 448.45 289.655C448.45 291.103 449.14 293.276 451.21 293.276C453.28 294 455.34 292.552 455.34 291.103C456.03 288.931 455.34 287.483 453.97 286.759C453.97 285.31 456.03 283.862 457.41 283.138C458.1 283.138 458.1 283.138 458.1 283.138C458.1 284.586 459.48 285.31 461.55 285.31C462.93 285.31 465 283.138 464.31 280.966Z" fill="#6D25BF" className="svg-elem-20"></path>
<path fillRule="evenodd" clipRule="evenodd" d="M454.67 304.4C456 304.4 457.33 305.1 458.67 306.5C460 306.5 460 306.5 460 306.5C458.67 304.4 456.67 303 454.67 303C450.67 303 448 306.5 448 310C448 314.2 450.67 317 454.67 317C456.67 317 458.67 315.6 460 314.2C458.67 314.2 458.67 314.2 458.67 314.2C457.33 315.6 456 316.3 454.67 316.3C451.33 316.3 448.67 313.5 448.67 310C448.67 307.2 451.33 304.4 454.67 304.4Z" fill="#6D25BF" className="svg-elem-21"></path>
<path fillRule="evenodd" clipRule="evenodd" d="M463.5 307H461.5H457V309H462.25H464.25H465V307H463.5Z" fill="#6D25BF" className="svg-elem-22"></path>
<path fillRule="evenodd" clipRule="evenodd" d="M462.2 310.345C456.6 310.345 456.6 310.345 456.6 310.345C456.6 312.414 456.6 312.414 456.6 312.414C461.5 312.414 461.5 312.414 461.5 312.414C461.5 313.103 461.5 313.103 461.5 313.793C460.1 315.862 457.3 317.931 454.5 317.931C449.6 317.931 446.1 314.483 446.1 309.655C446.1 305.517 449.6 302.069 454.5 302.069C457.3 302.069 460.1 303.448 461.5 306.207C463.6 306.207 463.6 306.207 463.6 306.207C462.2 302.759 458.7 300 454.5 300C448.9 300 444 304.138 444 309.655C444 315.172 448.9 320 454.5 320C458.7 320 462.2 317.241 463.6 313.793C463.6 313.103 463.6 313.103 463.6 312.414C465 312.414 465 312.414 465 312.414C465 310.345 465 310.345 465 310.345C464.3 310.345 464.3 310.345 464.3 310.345H462.2Z" fill="#6D25BF" className="svg-elem-23"></path>
<path fillRule="evenodd" clipRule="evenodd" d="M458.83 335.333C460.28 334.667 461 333.333 461 332C461 329.333 458.83 328 456.67 328C456.67 326 456.67 326 456.67 326C453.78 326 453.78 326 453.78 326C453.78 328 453.78 328 453.78 328C452.33 328 452.33 328 452.33 328C452.33 326 452.33 326 452.33 326C450.17 326 450.17 326 450.17 326C450.17 328 450.17 328 450.17 328C448 328 448 328 448 328C448 331.333 448 331.333 448 331.333C449.44 331.333 449.44 331.333 449.44 331.333C449.44 340 449.44 340 449.44 340C448 340 448 340 448 340C448 343.333 448 343.333 448 343.333C450.17 343.333 450.17 343.333 450.17 343.333C450.17 346 450.17 346 450.17 346C452.33 346 452.33 346 452.33 346C452.33 343.333 452.33 343.333 452.33 343.333C453.78 343.333 453.78 343.333 453.78 343.333C453.78 346 453.78 346 453.78 346C456.67 346 456.67 346 456.67 346C456.67 343.333 456.67 343.333 456.67 343.333C459.56 343.333 461 342 461 339.333C461 337.333 460.28 335.333 458.83 335.333ZM453.06 331.333C455.94 331.333 455.94 331.333 455.94 331.333C455.94 331.333 455.94 331.333 456.67 331.333C456.67 331.333 457.39 332 457.39 332.667C457.39 333.333 456.67 334 456.67 334C455.94 334 455.94 334 455.94 334C453.06 334 453.06 334 453.06 334V331.333ZM456.67 340C455.94 340 455.94 340.667 455.94 340.667C453.06 340 453.06 340 453.06 340C453.06 337.333 453.06 337.333 453.06 337.333C455.94 337.333 455.94 337.333 455.94 337.333C455.94 337.333 455.94 337.333 456.67 337.333C457.39 337.333 457.39 338 457.39 338.667C457.39 339.333 457.39 340 456.67 340Z" fill="#6D25BF" className="svg-elem-24"></path>
<path fillRule="evenodd" clipRule="evenodd" d="M454.63 246L448 256.98L454.63 260L461 256.98L454.63 246Z" fill="#6D25BF" className="svg-elem-25"></path>
<path fillRule="evenodd" clipRule="evenodd" d="M454.63 268L461 259L454.63 262.892L448 259L454.63 268Z" fill="#6D25BF" className="svg-elem-26"></path>
<path fillRule="evenodd" clipRule="evenodd" d="M502.66 431C115.338 431 115.338 431 115.338 431C102.126 431 91 419.727 91 406.341C91 400 91 400 91 400C527 400 527 400 527 400C527 406.341 527 406.341 527 406.341C527 419.727 515.87 431 502.66 431Z" fill="#F4EED8" className="svg-elem-27"></path>
<path d="M350 400H268V410H350V400Z" fill="#EBE0BE" className="svg-elem-28"></path>
<path fillRule="evenodd" clipRule="evenodd" d="M527 400C527 406.341 527 406.341 527 406.341C527 419.727 515.87 431 502.66 431C115.338 431 115.338 431 115.338 431C102.126 431 91 419.727 91 406.341C91 400 91 400 91 400C91.695 400 91.695 400 91.695 400C93.086 411.273 103.517 420.432 115.338 420.432C502.66 420.432 502.66 420.432 502.66 420.432C514.48 420.432 524.22 411.273 526.3 400H527Z" fill="#EBE0BE" className="svg-elem-29"></path>
<path fillRule="evenodd" clipRule="evenodd" d="M262 109.5C262 72.221 292.445 42 330 42C367.555 42 398 72.221 398 109.5C398 146.779 367.555 177 330 177C292.445 177 262 146.779 262 109.5Z" fill="#4F03FA" className="svg-elem-30"></path>
<path fillRule="evenodd" clipRule="evenodd" d="M279 109.5C279 81.057 301.833 58 330 58C358.167 58 381 81.057 381 109.5C381 137.943 358.167 161 330 161C301.833 161 279 137.943 279 109.5Z" fill="#8854FD" className="svg-elem-31"></path>
<path fillRule="evenodd" clipRule="evenodd" d="M329.847 171C295.797 171 268 143.203 268 109.153C268 75.797 295.797 48 329.847 48C363.203 48 391 75.797 391 109.153C391 143.203 363.203 171 329.847 171ZM329.847 51.475C297.881 51.475 271.475 77.186 271.475 109.153C271.475 141.119 297.881 167.525 329.847 167.525C361.119 167.525 387.53 141.119 387.53 109.153C387.53 77.186 361.119 51.475 329.847 51.475Z" fill="#8854FD" className="svg-elem-32"></path>
<path fillRule="evenodd" clipRule="evenodd" d="M362.624 104.348C361.935 98.783 356.43 94.609 350.237 95.304C345.419 96 341.979 99.478 340.602 103.652C336.473 104.348 336.473 104.348 336.473 104.348C332.344 105.043 328.215 103.652 325.462 100.174C322.021 97.391 322.021 97.391 322.021 97.391C324.086 93.217 323.398 87.652 319.957 84.174C315.828 80.696 308.946 80 304.817 84.174C300 88.348 300 96 304.817 100.174C308.258 103.652 313.075 104.348 317.204 102.261C319.269 104.348 319.269 104.348 319.269 104.348C322.71 107.826 324.086 112.696 322.71 117.565C322.021 120.348 322.021 120.348 322.021 120.348C317.892 121.043 313.763 124.522 313.075 129.391C311.699 134.957 315.14 141.217 320.645 142.609C326.839 144 333.032 139.826 334.409 134.261C335.785 129.391 333.032 124.522 329.591 121.739C330.968 116.174 335.097 112 341.29 111.304C341.979 111.304 341.979 111.304 341.979 111.304C344.043 115.478 348.172 118.261 352.989 117.565C359.183 116.87 364 110.609 362.624 104.348Z" fill="#CFBBFE" className="svg-elem-33"></path>
<path fillRule="evenodd" clipRule="evenodd" d="M60 217.5C60 185.744 85.744 160 117.5 160C149.256 160 175 185.744 175 217.5C175 249.256 149.256 275 117.5 275C85.744 275 60 249.256 60 217.5Z" fill="#521C8F" className="svg-elem-34"></path>
<path fillRule="evenodd" clipRule="evenodd" d="M74 217C74 193.252 93.252 174 117 174C140.748 174 160 193.252 160 217C160 240.748 140.748 260 117 260C93.252 260 74 240.748 74 217Z" fill="#6D25BF" className="svg-elem-35"></path>
<path fillRule="evenodd" clipRule="evenodd" d="M117.154 269C88.812 269 66 245.497 66 217.154C66 188.812 88.812 166 117.154 166C146.188 166 169 188.812 169 217.154C169 245.497 146.188 269 117.154 269ZM117.154 168.765C90.886 168.765 68.765 190.195 68.765 217.154C68.765 244.114 90.886 266.235 117.154 266.235C144.114 266.235 166.235 244.114 166.235 217.154C166.235 190.195 144.114 168.765 117.154 168.765Z" fill="#6D25BF" className="svg-elem-36"></path>
<path fillRule="evenodd" clipRule="evenodd" d="M128.321 215.765C132.509 214.376 134.604 210.212 134.604 205.353C134.604 198.412 130.415 194.247 122.736 193.553C122.736 188 122.736 188 122.736 188C115.057 188 115.057 188 115.057 188C115.057 193.553 115.057 193.553 115.057 193.553C112.264 193.553 112.264 193.553 112.264 193.553C112.264 188 112.264 188 112.264 188C104.585 188 104.585 188 104.585 188C104.585 193.553 104.585 193.553 104.585 193.553C99 193.553 99 193.553 99 193.553C99 203.271 99 203.271 99 203.271C104.585 203.271 104.585 203.271 104.585 203.271C104.585 230.341 104.585 230.341 104.585 230.341C99 230.341 99 230.341 99 230.341C99 240.059 99 240.059 99 240.059C104.585 240.059 104.585 240.059 104.585 240.059C104.585 247 104.585 247 104.585 247C112.264 247 112.264 247 112.264 247C112.264 240.059 112.264 240.059 112.264 240.059C115.057 240.059 115.057 240.059 115.057 240.059C115.057 247 115.057 247 115.057 247C122.736 247 122.736 247 122.736 247C122.736 240.059 122.736 240.059 122.736 240.059C131.113 240.059 136 234.506 136 226.871C136 221.318 133.208 216.459 128.321 215.765ZM113.66 203.271C120.641 203.271 120.641 203.271 120.641 203.271C121.34 203.271 122.038 203.271 122.736 203.271C124.132 203.965 124.83 205.353 124.83 207.435C124.83 209.518 124.132 210.906 122.736 211.6C122.038 212.294 121.34 212.294 120.641 212.294C113.66 212.294 113.66 212.294 113.66 212.294V203.271ZM122.736 230.341C122.038 230.341 121.34 230.341 120.641 230.341C113.66 230.341 113.66 230.341 113.66 230.341C113.66 220.624 113.66 220.624 113.66 220.624C120.641 220.624 120.641 220.624 120.641 220.624C121.34 220.624 122.038 220.624 122.736 221.318C124.83 222.012 126.226 223.4 126.226 225.482C126.226 228.259 124.83 229.647 122.736 230.341Z" fill="#C4A1ED" className="svg-elem-37"></path>
<path fillRule="evenodd" clipRule="evenodd" d="M151 112.5C151 89.028 169.804 70 193 70C216.196 70 235 89.028 235 112.5C235 135.972 216.196 155 193 155C169.804 155 151 135.972 151 112.5Z" fill="#F80463" className="svg-elem-38"></path>
<path fillRule="evenodd" clipRule="evenodd" d="M161 112C161 94.327 175.327 80 193 80C210.673 80 225 94.327 225 112C225 129.673 210.673 144 193 144C175.327 144 161 129.673 161 112Z" fill="#FC5596" className="svg-elem-39"></path>
<path fillRule="evenodd" clipRule="evenodd" d="M192.5 150C171.5 150 154 132.727 154 112C154 91.273 171.5 74 192.5 74C214.2 74 231 91.273 231 112C231 132.727 214.2 150 192.5 150ZM192.5 76.073C172.9 76.073 156.1 91.964 156.1 112C156.1 132.036 172.9 147.927 192.5 147.927C212.8 147.927 228.9 132.036 228.9 112C228.9 91.964 212.8 76.073 192.5 76.073Z" fill="#FC5596" className="svg-elem-40"></path>
<path fillRule="evenodd" clipRule="evenodd" d="M192.6 88L179 109.891L192.6 116L207 109.891L192.6 88Z" fill="#FEBBD5" className="svg-elem-41"></path>
<path fillRule="evenodd" clipRule="evenodd" d="M192.6 137L207 114L192.6 123.36L179 114L192.6 137Z" fill="#FEBBD5" className="svg-elem-42"></path>
<path fillRule="evenodd" clipRule="evenodd" d="M444 172.5C444 145.714 465.49 124 492 124C518.51 124 540 145.714 540 172.5C540 199.286 518.51 221 492 221C465.49 221 444 199.286 444 172.5Z" fill="#27BDBE" className="svg-elem-43"></path>
<path fillRule="evenodd" clipRule="evenodd" d="M456 172.5C456 152.342 472.12 136 492 136C511.88 136 528 152.342 528 172.5C528 192.658 511.88 209 492 209C472.12 209 456 192.658 456 172.5Z" fill="#56DBDC" className="svg-elem-44"></path>
<path fillRule="evenodd" clipRule="evenodd" d="M492.15 216C468.49 216 449 196.512 449 172.152C449 148.488 468.49 129 492.15 129C516.51 129 536 148.488 536 172.152C536 196.512 516.51 216 492.15 216ZM492.15 131.088C469.88 131.088 451.09 149.88 451.09 172.152C451.09 195.12 469.88 213.216 492.15 213.216C515.12 213.216 533.22 195.12 533.22 172.152C533.22 149.88 515.12 131.088 492.15 131.088Z" fill="#56DBDC" className="svg-elem-45"></path>
<path fillRule="evenodd" clipRule="evenodd" d="M491.56 159.067C495.8 159.067 499.34 161.133 502.17 163.889C505 163.889 505 163.889 505 163.889C502.17 159.756 497.22 157 491.56 157C483.07 157 476 163.889 476 172.156C476 181.111 483.07 188 491.56 188C497.22 188 502.17 185.244 505 181.111C502.17 181.111 502.17 181.111 502.17 181.111C499.34 183.867 495.8 185.244 491.56 185.244C484.49 185.244 478.12 179.733 478.12 172.156C478.12 165.267 484.49 159.067 491.56 159.067Z" fill="#BBF1F1" className="svg-elem-46"></path>
<path fillRule="evenodd" clipRule="evenodd" d="M513.07 166H508.8H496V171H509.6H513.87H516V166H513.07Z" fill="#BBF1F1" className="svg-elem-47"></path>
<path fillRule="evenodd" clipRule="evenodd" d="M509.69 174.231C496.36 174.231 496.36 174.231 496.36 174.231C496.36 178.385 496.36 178.385 496.36 178.385C508.99 178.385 508.99 178.385 508.99 178.385C508.28 179.769 508.28 180.462 507.58 181.154C504.07 186.692 498.46 190.154 491.45 190.154C481.63 190.154 473.21 182.538 473.21 172.154C473.21 162.462 481.63 154.154 491.45 154.154C498.46 154.154 504.78 158.308 507.58 163.846C512.49 163.846 512.49 163.846 512.49 163.846C508.99 155.538 501.27 150 491.45 150C478.82 150 469 159.692 469 172.154C469 184.615 478.82 195 491.45 195C501.27 195 508.99 189.462 512.49 181.154C512.49 180.462 513.19 179.769 513.19 178.385C516 178.385 516 178.385 516 178.385C516 174.231 516 174.231 516 174.231C513.9 174.231 513.9 174.231 513.9 174.231H509.69Z" fill="#BBF1F1" className="svg-elem-48"></path>
<path fillRule="evenodd" clipRule="evenodd" d="M74.603 393.75C73.904 388.889 69.712 386.111 64.822 386.111C61.329 386.806 58.534 389.583 57.137 393.056C54.342 393.75 54.342 393.75 54.342 393.75C50.849 394.444 47.356 393.056 45.26 390.278C42.466 388.194 42.466 388.194 42.466 388.194C44.562 384.722 43.863 380.556 41.068 377.778C37.575 375 31.986 375 28.493 377.778C25 381.25 25 386.806 28.493 390.278C31.288 393.056 35.479 393.75 38.274 392.361C40.37 393.75 40.37 393.75 40.37 393.75C42.466 396.528 43.863 400 43.164 404.167C42.466 406.25 42.466 406.25 42.466 406.25C38.973 406.944 35.479 409.722 34.781 413.194C34.082 418.056 36.877 422.222 41.767 423.611C46.658 425 51.548 421.528 52.247 416.667C52.945 413.194 51.548 409.722 48.055 407.639C49.452 402.778 52.945 399.306 57.836 399.306C59.932 402.083 63.425 404.167 66.918 404.167C71.808 403.472 76 398.611 74.603 393.75Z" fill="#6D25BF" className="svg-elem-49"></path>
<path fillRule="evenodd" clipRule="evenodd" d="M386.79 479.588C390.24 478.176 391.62 475.353 391.62 471.118C391.62 466.176 388.17 461.941 382.64 461.941C382.64 457 382.64 457 382.64 457C376.43 457 376.43 457 376.43 457C376.43 461.941 376.43 461.941 376.43 461.941C374.36 461.941 374.36 461.941 374.36 461.941C374.36 457 374.36 457 374.36 457C368.143 457 368.143 457 368.143 457C368.143 461.941 368.143 461.941 368.143 461.941C364 461.941 364 461.941 364 461.941C364 469.706 364 469.706 364 469.706C368.143 469.706 368.143 469.706 368.143 469.706C368.143 491.588 368.143 491.588 368.143 491.588C364 491.588 364 491.588 364 491.588C364 499.353 364 499.353 364 499.353C368.143 499.353 368.143 499.353 368.143 499.353C368.143 505 368.143 505 368.143 505C374.36 505 374.36 505 374.36 505C374.36 499.353 374.36 499.353 374.36 499.353C376.43 499.353 376.43 499.353 376.43 499.353C376.43 505 376.43 505 376.43 505C382.64 505 382.64 505 382.64 505C382.64 499.353 382.64 499.353 382.64 499.353C388.86 499.353 393 495.118 393 488.765C393 483.824 390.93 480.294 386.79 479.588ZM375.05 469.706C381.26 469.706 381.26 469.706 381.26 469.706C381.26 469.706 381.95 469.706 382.64 469.706C383.33 470.412 384.02 471.118 384.02 473.235C384.02 474.647 383.33 476.059 382.64 476.765C381.95 476.765 381.26 476.765 381.26 476.765C375.05 476.765 375.05 476.765 375.05 476.765V469.706ZM382.64 491.588C381.95 491.588 381.26 491.588 381.26 491.588C375.05 491.588 375.05 491.588 375.05 491.588C375.05 483.824 375.05 483.824 375.05 483.824C381.26 483.824 381.26 483.824 381.26 483.824C381.26 483.824 381.95 483.824 382.64 483.824C384.02 484.529 385.4 485.941 385.4 487.353C385.4 489.471 384.02 490.882 382.64 491.588Z" fill="#6D25BF" className="svg-elem-50"></path>
<path fillRule="evenodd" clipRule="evenodd" d="M229.222 10.8C233.356 10.8 237.489 12.2 240.244 15.7C243 15.7 243 15.7 243 15.7C240.244 10.8 234.733 8 229.222 8C219.578 8 212 15.7 212 25.5C212 34.6 219.578 43 229.222 43C234.733 43 240.244 39.5 243 35.3C240.244 35.3 240.244 35.3 240.244 35.3C237.489 38.1 233.356 40.2 229.222 40.2C220.956 40.2 214.756 33.9 214.756 25.5C214.756 17.1 220.956 10.8 229.222 10.8Z" fill="#6D25BF" className="svg-elem-51"></path>
<path fillRule="evenodd" clipRule="evenodd" d="M253.217 19H247.904H235V23H249.169H253.976H256V19H253.217Z" fill="#6D25BF" className="svg-elem-52"></path>
<path fillRule="evenodd" clipRule="evenodd" d="M249.067 27.625C234.507 27.625 234.507 27.625 234.507 27.625C234.507 32.583 234.507 32.583 234.507 32.583C247.68 32.583 247.68 32.583 247.68 32.583C247.68 33.292 246.987 34.708 246.293 35.417C242.827 41.792 236.587 46.042 228.96 46.042C217.867 46.042 208.853 36.833 208.853 25.5C208.853 14.167 217.867 4.958 228.96 4.958C236.587 4.958 243.52 9.208 246.293 15.583C251.84 15.583 251.84 15.583 251.84 15.583C248.373 6.375 239.36 0 228.96 0C215.093 0 204 11.333 204 25.5C204 39.667 215.093 51 228.96 51C239.36 51 248.373 44.625 251.84 35.417C252.533 34.708 252.533 33.292 253.227 32.583C256 32.583 256 32.583 256 32.583C256 27.625 256 27.625 256 27.625C253.92 27.625 253.92 27.625 253.92 27.625H249.067Z" fill="#6D25BF" className="svg-elem-53"></path>
<path fillRule="evenodd" clipRule="evenodd" d="M161.778 473.72C166.044 473.72 170.311 475.76 173.156 478.48C176 478.48 176 478.48 176 478.48C173.156 473.72 167.467 471 161.778 471C151.822 471 144 478.48 144 488C144 497.52 151.822 505 161.778 505C167.467 505 173.156 501.6 176 497.52C173.156 497.52 173.156 497.52 173.156 497.52C170.311 500.24 166.044 502.28 161.778 502.28C153.244 502.28 146.844 496.16 146.844 488C146.844 479.84 153.244 473.72 161.778 473.72Z" fill="#6D25BF" className="svg-elem-54"></path>
<path fillRule="evenodd" clipRule="evenodd" d="M185.9 481H180.388H167V486H181.7H186.688H188V481H185.9Z" fill="#6D25BF" className="svg-elem-55"></path>
<path fillRule="evenodd" clipRule="evenodd" d="M181.797 490.083C167.324 490.083 167.324 490.083 167.324 490.083C167.324 494.944 167.324 494.944 167.324 494.944C180.419 494.944 180.419 494.944 180.419 494.944C180.419 495.639 179.73 497.028 179.041 497.722C175.595 503.972 169.392 508.139 161.811 508.139C150.784 508.139 141.824 499.111 141.824 488C141.824 476.889 150.784 467.861 161.811 467.861C169.392 467.861 175.595 472.028 179.041 478.278C184.554 478.278 184.554 478.278 184.554 478.278C181.108 469.25 172.149 463 161.811 463C148.027 463 137 474.111 137 488C137 501.889 148.027 513 161.811 513C172.149 513 180.419 506.75 184.554 497.722C185.243 497.028 185.243 495.639 185.932 494.944C188 494.944 188 494.944 188 494.944C188 490.083 188 490.083 188 490.083C186.622 490.083 186.622 490.083 186.622 490.083H181.797Z" fill="#6D25BF" className="svg-elem-56"></path>
<path fillRule="evenodd" clipRule="evenodd" d="M469.13 48L453 74.473L469.13 82L485 74.473L469.13 48Z" fill="#6D25BF" className="svg-elem-57"></path>
<path fillRule="evenodd" clipRule="evenodd" d="M469.13 105L485 79L469.13 89.505L453 79L469.13 105Z" fill="#6D25BF" className="svg-elem-58"></path>
<path fillRule="evenodd" clipRule="evenodd" d="M540 13.148L533.88 2L527 13.148H530.31V23H536.43V13.148H540Z" fill="#6D25BF" className="svg-elem-59"></path>
<path fillRule="evenodd" clipRule="evenodd" d="M551 25.398L544.5 14L538 25.398H541.52V36H547.48V25.398H551Z" fill="#6D25BF" className="svg-elem-60"></path>
<path fillRule="evenodd" clipRule="evenodd" d="M11 163.5L17 174L23 163.5H19.75V153H14.25V163.5H11Z" fill="#6D25BF" className="svg-elem-61"></path>
<path fillRule="evenodd" clipRule="evenodd" d="M0 151L6.88202 161L13 151H9.43103V141H3.31403V151H0Z" fill="#6D25BF" className="svg-elem-62"></path>
<path fillRule="evenodd" clipRule="evenodd" d="M440.26 478L425 487L440.26 496V491.114H455V482.886H440.26V478Z" fill="#6D25BF" className="svg-elem-63"></path>
<path fillRule="evenodd" clipRule="evenodd" d="M458.29 462L442 471L458.29 480V475.114H473V466.886H458.29V462Z" fill="#6D25BF" className="svg-elem-64"></path>
<defs>
<linearGradient id="paint0_linear" x1="419.97" y1="154.61" x2="176.941" y2="397.636" gradientUnits="userSpaceOnUse">
<stop stop-color="#6D25BF"></stop>
<stop offset="0.07" stop-color="#6D25BF"></stop>
<stop offset="1" stop-color="#8854FD"></stop>
</linearGradient>
</defs>
</svg>
