<svg width="129" height="30" viewBox="0 0 129 30" fill="none" xmlns="http://www.w3.org/2000/svg">
<path d="M38.8581 22H46.7651V20.2997H40.8333V8.90909H38.8581V22ZM53.0005 22.1982C55.7683 22.1982 57.5772 20.1719 57.5772 17.1357C57.5772 14.0803 55.7683 12.054 53.0005 12.054C50.2328 12.054 48.4238 14.0803 48.4238 17.1357C48.4238 20.1719 50.2328 22.1982 53.0005 22.1982ZM53.0069 20.5938C51.198 20.5938 50.3542 19.0149 50.3542 17.1293C50.3542 15.25 51.198 13.652 53.0069 13.652C54.8031 13.652 55.6468 15.25 55.6468 17.1293C55.6468 19.0149 54.8031 20.5938 53.0069 20.5938ZM62.5678 22.2173C64.1914 22.2173 65.1055 21.3928 65.4698 20.6577H65.5465V22H67.413V15.4801C67.413 12.6229 65.163 12.054 63.6033 12.054C61.8263 12.054 60.19 12.7699 59.5508 14.5597L61.3469 14.9688C61.6282 14.272 62.3441 13.6009 63.6289 13.6009C64.8626 13.6009 65.4954 14.2464 65.4954 15.3587V15.4034C65.4954 16.1001 64.7795 16.0874 63.0153 16.2919C61.1552 16.5092 59.2504 16.995 59.2504 19.2259C59.2504 21.1562 60.7013 22.2173 62.5678 22.2173ZM62.9833 20.6832C61.9031 20.6832 61.1232 20.1974 61.1232 19.2514C61.1232 18.2287 62.0309 17.8643 63.1367 17.7173C63.7567 17.6342 65.2269 17.468 65.5018 17.1932V18.4588C65.5018 19.6222 64.5749 20.6832 62.9833 20.6832ZM73.6341 22.1918C75.4238 22.1918 76.127 21.0987 76.4721 20.4723H76.6319V22H78.4984V8.90909H76.5872V13.7734H76.4721C76.127 13.1662 75.475 12.054 73.6468 12.054C71.2754 12.054 69.5304 13.9268 69.5304 17.1101C69.5304 20.2869 71.2498 22.1918 73.6341 22.1918ZM74.0559 20.5618C72.3493 20.5618 71.4608 19.0597 71.4608 17.0909C71.4608 15.1413 72.3301 13.6776 74.0559 13.6776C75.7243 13.6776 76.6191 15.0391 76.6191 17.0909C76.6191 19.1555 75.7051 20.5618 74.0559 20.5618ZM85.9899 22H87.9011V15.9467C87.9011 14.6236 88.8279 13.7031 89.9146 13.7031C90.9757 13.7031 91.7108 14.4062 91.7108 15.4737V22H93.6156V15.7422C93.6156 14.5597 94.3379 13.7031 95.5843 13.7031C96.5943 13.7031 97.4252 14.2656 97.4252 15.5952V22H99.3365V15.4162C99.3365 13.1726 98.0836 12.054 96.3066 12.054C94.894 12.054 93.8329 12.7315 93.3599 13.7798H93.2576C92.8294 12.706 91.9281 12.054 90.6177 12.054C89.3201 12.054 88.3549 12.6996 87.9458 13.7798H87.8244V12.1818H85.9899V22ZM106.034 22.1982C108.801 22.1982 110.61 20.1719 110.61 17.1357C110.61 14.0803 108.801 12.054 106.034 12.054C103.266 12.054 101.457 14.0803 101.457 17.1357C101.457 20.1719 103.266 22.1982 106.034 22.1982ZM106.04 20.5938C104.231 20.5938 103.387 19.0149 103.387 17.1293C103.387 15.25 104.231 13.652 106.04 13.652C107.836 13.652 108.68 15.25 108.68 17.1293C108.68 19.0149 107.836 20.5938 106.04 20.5938ZM112.744 22H114.655V16.0043C114.655 14.7195 115.646 13.7926 117.001 13.7926C117.397 13.7926 117.845 13.8629 117.998 13.9077V12.0795C117.806 12.054 117.429 12.0348 117.186 12.0348C116.036 12.0348 115.051 12.6868 114.693 13.7415H114.591V12.1818H112.744V22ZM123.532 22.1982C125.673 22.1982 127.188 21.1435 127.623 19.5455L125.814 19.2195C125.469 20.1463 124.638 20.6193 123.551 20.6193C121.915 20.6193 120.815 19.5582 120.764 17.6662H127.744V16.9886C127.744 13.4411 125.622 12.054 123.398 12.054C120.662 12.054 118.859 14.1378 118.859 17.1548C118.859 20.2038 120.636 22.1982 123.532 22.1982ZM120.771 16.2344C120.847 14.8409 121.857 13.6328 123.411 13.6328C124.893 13.6328 125.865 14.7322 125.871 16.2344H120.771Z" fill="white"/>
<path d="M15 27.5C8.09625 27.5 2.5 21.9037 2.5 15C2.5 8.09625 8.09625 2.5 15 2.5C21.9037 2.5 27.5 8.09625 27.5 15C27.5 21.9037 21.9037 27.5 15 27.5ZM21.025 21.345C22.5339 19.9148 23.4843 17.9941 23.7058 15.927C23.9274 13.8599 23.4058 11.7814 22.2343 10.0639C21.0628 8.34639 19.3181 7.10212 17.3127 6.55398C15.3073 6.00585 13.1722 6.18966 11.29 7.0725L12.5087 9.26625C13.4599 8.85286 14.499 8.68266 15.5323 8.77099C16.5657 8.85932 17.5608 9.20341 18.428 9.77224C19.2952 10.3411 20.0072 11.1168 20.4998 12.0294C20.9925 12.942 21.2503 13.9629 21.25 15H17.5L21.025 21.345ZM18.71 22.9275L17.4913 20.7337C16.5401 21.1471 15.501 21.3173 14.4677 21.229C13.4343 21.1407 12.4392 20.7966 11.572 20.2278C10.7048 19.6589 9.99282 18.8832 9.50017 17.9706C9.00752 17.058 8.74971 16.0371 8.75 15H12.5L8.975 8.655C7.46611 10.0852 6.51574 12.0059 6.29416 14.073C6.07257 16.1401 6.59423 18.2186 7.76571 19.9361C8.93718 21.6536 10.6819 22.8979 12.6873 23.446C14.6927 23.9942 16.8278 23.8103 18.71 22.9275Z" fill="white"/>
</svg>
