<svg width="140" height="51" viewBox="0 0 140 51" fill="none" xmlns="http://www.w3.org/2000/svg">
<path d="M60.8693 19.3153H64.9858V31H66.571V19.3153H70.6875V17.9091H60.8693V19.3153ZM72.1417 31L73.4585 27.2926H78.7511L80.0678 31H81.7298L76.9229 17.9091H75.2866L70.4798 31H72.1417ZM73.957 25.8864L76.0536 19.9801H76.1559L78.2525 25.8864H73.957ZM83.7688 31H85.354V26.7557L86.9904 24.9148L91.5415 31H93.4592L87.962 23.8153L93.4592 17.9091H91.3881L85.5075 24.4034H85.354V17.9091H83.7688V31ZM95.511 31H103.514V29.5938H97.0962V25.1449H103.002V23.7386H97.0962V19.3153H103.412V17.9091H95.511V31ZM117.314 24.4545C117.314 20.3125 114.885 17.7301 111.536 17.7301C108.186 17.7301 105.757 20.3125 105.757 24.4545C105.757 28.5966 108.186 31.179 111.536 31.179C114.885 31.179 117.314 28.5966 117.314 24.4545ZM115.78 24.4545C115.78 27.8551 113.914 29.696 111.536 29.696C109.158 29.696 107.292 27.8551 107.292 24.4545C107.292 21.054 109.158 19.2131 111.536 19.2131C113.914 19.2131 115.78 21.054 115.78 24.4545ZM119.98 31H121.565V25.1449H127.241V23.7386H121.565V19.3153H127.829V17.9091H119.98V31ZM130.544 31H132.129V25.1449H137.806V23.7386H132.129V19.3153H138.394V17.9091H130.544V31Z" fill="white"/>
<path fillRule="evenodd" clipRule="evenodd" d="M25.4627 0.0223171C24.6044 -0.135267 23.7387 0.562605 23.724 1.45558C23.6917 2.85215 23.6983 4.24991 23.705 5.6477C23.7119 7.12894 23.7189 8.61022 23.6797 10.0902C22.5042 10.0752 21.3286 10.0727 20.1506 10.0852C20.1281 9.49412 20.1309 8.90254 20.1336 8.31092C20.1369 7.61061 20.1401 6.91024 20.1014 6.21061C20.0744 5.49773 19.5383 4.77735 18.8177 4.6923C17.9201 4.4997 16.9339 5.27011 16.9486 6.21561C16.927 6.8606 16.93 7.50618 16.9331 8.15178C16.9362 8.82813 16.9394 9.50451 16.9142 10.1802L16.914 10.1803C16.5058 10.2678 16.0977 10.3553 15.6895 10.4454L15.6896 10.4454C15.815 10.4804 15.9404 10.5154 16.0658 10.5479C15.0694 10.557 14.2381 11.1674 13.4569 11.741C13.3801 11.7975 13.3037 11.8535 13.2277 11.9086C11.7497 13.2469 10.6725 15.1429 10.5668 17.1789C8.82749 17.2357 7.08654 17.2264 5.34538 17.2171C4.09527 17.2104 2.84506 17.2037 1.59527 17.2215C0.682877 17.1689 -0.12623 18.0419 0.0164093 18.9699C-0.0155615 19.8003 0.810761 20.4357 1.58052 20.4007C2.6617 20.3979 3.74288 20.4005 4.82406 20.4031C6.71616 20.4075 8.60827 20.412 10.5004 20.3882C10.5082 21.379 10.5098 22.3682 10.5114 23.3584C10.5118 23.6056 10.5122 23.8528 10.5127 24.1001C9.95411 24.1299 9.39362 24.1176 8.8335 24.1053C7.98049 24.0865 7.12834 24.0678 6.28514 24.1977C5.00631 24.6704 5.00877 26.7565 6.30482 27.1993C7.10778 27.3484 7.92475 27.3316 8.74237 27.3148C9.33712 27.3025 9.93221 27.2902 10.5225 27.3419C10.521 27.4428 10.5195 27.5438 10.518 27.6448C10.5017 28.722 10.4853 29.7991 10.5348 30.8762C9.23423 30.9473 7.932 30.936 6.62956 30.9246C5.68591 30.9164 4.74214 30.9081 3.7988 30.9313C3.13725 30.9663 2.32568 31.2564 2.13878 31.9818C1.71824 32.9548 2.48062 34.1905 3.5332 34.183C5.85723 34.213 8.18372 34.2005 10.5077 34.183C10.7217 35.9614 11.457 37.6874 12.7039 38.9655C13.6999 39.9311 14.9394 40.8691 16.3609 40.9316C16.2392 40.9604 16.1181 40.9891 15.997 41.0179C15.8758 41.0466 15.7547 41.0754 15.6329 41.1042C16.0608 41.0967 16.4887 41.1292 16.9167 41.1842C16.9375 41.579 16.9335 41.9749 16.9296 42.371C16.9238 42.9587 16.918 43.5465 16.9929 44.1308C17.2364 45.2389 18.6997 45.7492 19.5383 44.9762C20.235 44.3334 20.1848 43.4074 20.1356 42.499C20.1137 42.096 20.092 41.6965 20.1359 41.3268C21.3213 41.3193 22.5042 41.3168 23.6871 41.3243C23.7132 42.5198 23.709 43.716 23.7048 44.9121C23.7003 46.1985 23.6958 47.485 23.7289 48.7708C23.724 49.6412 24.6413 50.3716 25.4676 50.234C26.2128 50.2115 26.8596 49.5012 26.835 48.7458C26.877 47.125 26.8702 45.5031 26.8633 43.8816C26.8598 43.0357 26.8562 42.1898 26.8596 41.3443C27.7389 41.3115 28.6183 41.3146 29.4976 41.3177C29.8233 41.3188 30.149 41.32 30.4747 41.3193C30.4783 41.9066 30.4756 42.4944 30.473 43.0825C30.4701 43.7244 30.4671 44.3666 30.4723 45.0088C30.4182 45.7617 30.9322 46.487 31.6454 46.6897C32.3266 46.8823 32.9119 46.477 33.421 46.0718C33.6891 45.0676 33.6588 44.0305 33.6286 42.9935C33.6117 42.4135 33.5947 41.8335 33.63 41.2593C34.7515 40.9691 35.8803 40.5889 36.8148 39.8735C38.6888 38.5903 39.7955 36.3992 40.0881 34.1555C42.2681 34.2131 44.4501 34.2052 46.6315 34.1972C47.8585 34.1928 49.0853 34.1883 50.3114 34.1955C51.3468 34.3256 52.3797 33.3225 52.1042 32.247C51.9616 31.3965 51.0885 30.9038 50.2966 30.9288C49.1212 30.9296 47.946 30.9275 46.7709 30.9254C44.5386 30.9214 42.3065 30.9174 40.0734 30.9338C40.075 30.1352 40.0745 29.3366 40.0739 28.5373C40.0736 28.1374 40.0734 27.7373 40.0734 27.3369C40.6751 27.305 41.2774 27.3099 41.8795 27.3147C42.5545 27.3202 43.2291 27.3256 43.9025 27.2793C44.6894 27.2768 45.2133 26.4689 45.2846 25.7435C45.292 24.9331 44.628 24.1001 43.7869 24.1226C43.0582 24.0961 42.3295 24.1009 41.6014 24.1057C41.0958 24.109 40.5905 24.1123 40.0857 24.1051C40.0684 22.872 40.0709 21.6413 40.0783 20.4107C41.2909 20.4022 42.5034 20.4025 43.7158 20.4028C45.0089 20.4032 46.3017 20.4035 47.5939 20.3932C48.4891 20.5007 49.3523 19.6303 49.2195 18.7148C49.2714 18.1311 48.8353 17.7473 48.4399 17.3992C48.3863 17.3519 48.3333 17.3053 48.2825 17.259C46.6996 17.2012 45.1159 17.2085 43.5319 17.2158C42.3742 17.2212 41.2164 17.2265 40.0586 17.2065C39.7635 13.7246 36.9943 10.738 33.6202 10.1602C33.6194 9.77118 33.6222 9.38192 33.6249 8.99257C33.6314 8.06768 33.6378 7.14228 33.598 6.21811C33.6472 5.00497 32.029 4.22956 31.1092 4.97745C30.6346 5.29763 30.4772 5.90545 30.4772 6.45324C30.47 6.96066 30.4719 7.46807 30.4737 7.97549C30.4763 8.67622 30.4789 9.37694 30.4575 10.0777C29.2623 10.0852 28.0646 10.0852 26.8694 10.0777C26.8556 8.83446 26.8597 7.59032 26.8639 6.34605C26.8693 4.71883 26.8748 3.09141 26.8399 1.46559C26.8522 0.715186 26.2177 -0.000194901 25.4627 0.0223171ZM13.0457 17.7417C13.0802 15.6131 14.5262 13.6596 16.4765 12.9342C17.093 12.6702 17.7728 12.6639 18.4337 12.6577C18.4741 12.6573 18.5144 12.657 18.5546 12.6565C21.1769 12.6594 23.7993 12.659 26.4212 12.6586C28.3875 12.6583 30.3536 12.658 32.3192 12.659C34.567 12.589 36.7435 14.2349 37.3312 16.4411C37.5721 17.2332 37.5564 18.0624 37.541 18.8822C37.5389 18.9917 37.5368 19.101 37.5354 19.21C37.5499 22.7765 37.5457 26.3429 37.5415 29.9093C37.54 31.183 37.5385 32.4566 37.5378 33.7303C37.496 36.4617 35.0244 38.8255 32.3512 38.7554C30.6509 38.7536 28.9508 38.7551 27.2509 38.7565C24.1908 38.759 21.1309 38.7615 18.0701 38.7454C16.5404 38.7479 15.0747 37.9425 14.145 36.7219C13.2868 35.7063 12.9966 34.3131 13.0285 33.0024C13.0375 30.6797 13.0357 28.357 13.0339 26.0346C13.0318 23.2698 13.0297 20.5054 13.0457 17.7417Z" fill="#FDFEFD"/>
<circle cx="25" cy="25" r="7" fill="#F4EED8"/>
</svg>
