<svg width="21" height="21" viewBox="0 0 21 21" fill="none" xmlns="http://www.w3.org/2000/svg">
<path d="M16.031 14.617L20.314 18.899L18.899 20.314L14.617 16.031C13.0237 17.3082 11.042 18.0029 9 18C4.032 18 0 13.968 0 9C0 4.032 4.032 0 9 0C13.968 0 18 4.032 18 9C18.0029 11.042 17.3082 13.0237 16.031 14.617ZM14.025 13.875C15.2941 12.5699 16.0029 10.8204 16 9C16 5.132 12.867 2 9 2C5.132 2 2 5.132 2 9C2 12.867 5.132 16 9 16C10.8204 16.0029 12.5699 15.2941 13.875 14.025L14.025 13.875ZM10.178 5.176C9.88313 5.3092 9.62498 5.51195 9.42569 5.76686C9.22641 6.02176 9.09195 6.32121 9.03384 6.63951C8.97574 6.95781 8.99573 7.28546 9.09209 7.59433C9.18846 7.90321 9.35832 8.18409 9.58712 8.41288C9.81591 8.64168 10.0968 8.81154 10.4057 8.90791C10.7145 9.00427 11.0422 9.02426 11.3605 8.96616C11.6788 8.90805 11.9782 8.77359 12.2331 8.57431C12.4881 8.37502 12.6908 8.11687 12.824 7.822C13.0868 8.67562 13.0563 9.59265 12.7375 10.427C12.4186 11.2613 11.8297 11.9648 11.0646 12.4256C10.2994 12.8864 9.40208 13.0778 8.51552 12.9694C7.62896 12.8609 6.8042 12.4589 6.17264 11.8274C5.54108 11.1958 5.13906 10.371 5.03064 9.48448C4.92223 8.59792 5.11365 7.70058 5.5744 6.93544C6.03516 6.1703 6.73875 5.58138 7.57305 5.26252C8.40735 4.94366 9.32438 4.9132 10.178 5.176Z" fill="white"/>
</svg>
