<svg width="26" height="26" viewBox="0 0 26 26" fill="none" xmlns="http://www.w3.org/2000/svg">
<path d="M21.5995 8.66664H22.75C23.3246 8.66664 23.8757 8.89491 24.2821 9.30124C24.6884 9.70757 24.9167 10.2587 24.9167 10.8333V15.1666C24.9167 15.7413 24.6884 16.2924 24.2821 16.6987C23.8757 17.105 23.3246 17.3333 22.75 17.3333H21.5995C21.3354 19.4277 20.316 21.3537 18.7327 22.75C17.1494 24.1462 15.111 24.9166 13 24.9166V22.75C14.7239 22.75 16.3772 22.0652 17.5962 20.8462C18.8152 19.6272 19.5 17.9739 19.5 16.25V9.74997C19.5 8.02606 18.8152 6.37277 17.5962 5.15378C16.3772 3.93479 14.7239 3.24997 13 3.24997C11.2761 3.24997 9.62279 3.93479 8.4038 5.15378C7.18481 6.37277 6.49999 8.02606 6.49999 9.74997V17.3333H3.24999C2.67536 17.3333 2.12426 17.105 1.71793 16.6987C1.3116 16.2924 1.08333 15.7413 1.08333 15.1666V10.8333C1.08333 10.2587 1.3116 9.70757 1.71793 9.30124C2.12426 8.89491 2.67536 8.66664 3.24999 8.66664H4.40049C4.66486 6.57244 5.68433 4.64668 7.26762 3.25071C8.8509 1.85473 10.8892 1.08447 13 1.08447C15.1108 1.08447 17.1491 1.85473 18.7324 3.25071C20.3157 4.64668 21.3351 6.57244 21.5995 8.66664ZM3.24999 10.8333V15.1666H4.33333V10.8333H3.24999ZM21.6667 10.8333V15.1666H22.75V10.8333H21.6667ZM8.40666 17.1004L9.55499 15.2631C10.5875 15.9098 11.7816 16.2519 13 16.25C14.2183 16.2519 15.4125 15.9098 16.445 15.2631L17.5933 17.1004C16.2167 17.9629 14.6245 18.4191 13 18.4166C11.3755 18.4191 9.7833 17.9629 8.40666 17.1004Z" fill="white"/>
</svg>
