<svg width="50" height="50" viewBox="0 0 50 50" fill="none" xmlns="http://www.w3.org/2000/svg">
<path d="M25 45.8332C13.4938 45.8332 4.16669 36.5061 4.16669 24.9998C4.16669 13.4936 13.4938 4.1665 25 4.1665C36.5063 4.1665 45.8334 13.4936 45.8334 24.9998C45.8334 36.5061 36.5063 45.8332 25 45.8332ZM18.5209 27.4373L18.5479 27.4228L20.3604 33.4019C20.5938 34.0498 20.9146 34.1665 21.3042 34.1123C21.6959 34.0603 21.9021 33.8498 22.1584 33.604L24.6334 31.2123L29.9459 35.1457C30.9167 35.6811 31.6146 35.404 31.8563 34.2457L35.3084 17.9498C35.6896 16.4332 35.0229 15.8248 33.8459 16.3082L13.5688 24.1415C12.1854 24.6957 12.1938 25.4707 13.3188 25.8144L18.5209 27.4394V27.4373Z" fill="white"/>
</svg>
